<svg width="16" height="9" viewBox="0 0 16 9" fill="none" xmlns="http://www.w3.org/2000/svg">
<mask id="mask0_76_59" style="mask-type:alpha" maskUnits="userSpaceOnUse" x="0" y="0" width="16" height="9">
<path d="M0.159818 1.56882L7.6314 8.46715C7.73815 8.56582 7.86096 8.61523 7.99989 8.61523C8.13881 8.61523 8.26185 8.56582 8.36866 8.46715L15.8396 1.56882C15.9467 1.47 16 1.3566 16 1.22827C16 1.1 15.9465 0.986447 15.8396 0.887829L15.0382 0.147883C14.9313 0.0492133 14.8083 -9.54716e-05 14.6694 -9.54838e-05C14.5305 -9.54959e-05 14.4075 0.0492133 14.3007 0.147883L7.99989 5.96551L1.6989 0.147519C1.5921 0.0488498 1.46906 -0.000148136 1.33036 -0.000148148C1.19121 -0.00014816 1.06823 0.0491606 0.961424 0.147519L0.159875 0.887776C0.0530688 0.986394 1.61068e-06 1.1 1.59947e-06 1.22822C-5.46785e-05 1.3566 0.0530125 1.47015 0.159818 1.56882Z" fill="black"/>
</mask>
<g mask="url(#mask0_76_59)">
<rect width="16" height="8.61538" fill="white"/>
</g>
</svg>
