<svg width="429" height="376" viewBox="0 0 429 376" fill="none" xmlns="http://www.w3.org/2000/svg">
<g clip-path="url(#clip0_80_20)">
<path opacity="0.8" d="M145.46 294.92C226.9 294.92 292.92 228.9 292.92 147.46C292.92 66.0201 226.9 0 145.46 0C64.0201 0 -2 66.0201 -2 147.46C-2 228.9 64.0201 294.92 145.46 294.92Z" fill="#467856"/>
<path d="M266.725 371.784H264.706V368.01H253.659V371.795H251.629L251.619 366.35H252.877C253.539 365.603 254.064 364.603 254.452 363.348C254.846 362.087 255.093 360.705 255.192 359.204L255.53 352.618H264.737V366.35H266.746L266.725 371.784ZM255.192 366.35H262.697V354.288H257.486L257.264 358.813C257.172 360.582 256.936 362.09 256.555 363.338C256.182 364.585 255.727 365.589 255.192 366.35ZM280.742 360.811C280.742 362.319 280.489 363.637 279.981 364.765C279.474 365.885 278.755 366.741 277.825 367.333C276.894 367.925 275.809 368.221 274.569 368.221C273.357 368.221 272.282 367.925 271.345 367.333C270.407 366.734 269.678 365.885 269.156 364.786C268.642 363.679 268.378 362.4 268.363 360.948V359.838C268.363 358.358 268.621 357.051 269.135 355.916C269.65 354.782 270.376 353.915 271.313 353.316C272.257 352.71 273.335 352.407 274.548 352.407C275.781 352.407 276.866 352.706 277.804 353.305C278.748 353.897 279.474 354.761 279.981 355.895C280.489 357.023 280.742 358.337 280.742 359.838V360.811ZM278.723 359.817C278.723 357.992 278.357 356.593 277.624 355.62C276.891 354.641 275.866 354.151 274.548 354.151C273.265 354.151 272.254 354.641 271.514 355.62C270.781 356.593 270.404 357.946 270.383 359.68V360.811C270.383 362.58 270.753 363.972 271.493 364.987C272.24 365.994 273.265 366.498 274.569 366.498C275.88 366.498 276.894 366.023 277.613 365.071C278.332 364.113 278.702 362.742 278.723 360.959V359.817ZM286.409 352.618L291.441 365.177L296.473 352.618H299.105V368.01H297.075V362.016L297.265 355.546L292.212 368.01H290.658L285.616 355.578L285.817 362.016V368.01H283.787V352.618H286.409ZM312.076 354.288H304.655V358.898H308.481C310.088 358.919 311.343 359.331 312.245 360.134C313.147 360.938 313.598 362.03 313.598 363.411C313.598 364.8 313.143 365.906 312.234 366.731C311.325 367.555 310.085 367.982 308.513 368.01H302.614V352.618H312.076V354.288ZM304.655 360.568V366.35H308.365C309.373 366.35 310.155 366.083 310.712 365.547C311.276 365.011 311.558 364.292 311.558 363.39C311.558 362.524 311.286 361.84 310.744 361.34C310.208 360.839 309.443 360.582 308.45 360.568H304.655ZM318.376 361.984V368.01H316.347V352.618H322.023C323.708 352.618 325.026 353.048 325.977 353.908C326.935 354.768 327.415 355.906 327.415 357.322C327.415 358.817 326.946 359.969 326.009 360.779C325.078 361.583 323.743 361.984 322.002 361.984H318.376ZM318.376 360.325H322.023C323.109 360.325 323.94 360.071 324.518 359.564C325.096 359.049 325.385 358.309 325.385 357.344C325.385 356.427 325.096 355.694 324.518 355.145C323.94 354.595 323.147 354.31 322.14 354.288H318.376V360.325ZM341.844 360.811C341.844 362.319 341.591 363.637 341.083 364.765C340.576 365.885 339.857 366.741 338.927 367.333C337.997 367.925 336.911 368.221 335.671 368.221C334.459 368.221 333.384 367.925 332.447 367.333C331.509 366.734 330.78 365.885 330.258 364.786C329.744 363.679 329.48 362.4 329.465 360.948V359.838C329.465 358.358 329.723 357.051 330.237 355.916C330.752 354.782 331.478 353.915 332.415 353.316C333.359 352.71 334.438 352.407 335.65 352.407C336.883 352.407 337.968 352.706 338.906 353.305C339.85 353.897 340.576 354.761 341.083 355.895C341.591 357.023 341.844 358.337 341.844 359.838V360.811ZM339.825 359.817C339.825 357.992 339.459 356.593 338.726 355.62C337.993 354.641 336.968 354.151 335.65 354.151C334.367 354.151 333.356 354.641 332.616 355.62C331.883 356.593 331.506 357.946 331.485 359.68V360.811C331.485 362.58 331.855 363.972 332.595 364.987C333.342 365.994 334.367 366.498 335.671 366.498C336.982 366.498 337.997 366.023 338.715 365.071C339.434 364.113 339.804 362.742 339.825 360.959V359.817ZM344.889 368.01V352.618H349.921C351.591 352.618 352.846 352.964 353.684 353.654C354.53 354.345 354.953 355.367 354.953 356.72C354.953 357.439 354.748 358.077 354.34 358.633C353.931 359.183 353.374 359.609 352.669 359.912C353.501 360.145 354.157 360.589 354.636 361.244C355.122 361.893 355.365 362.668 355.365 363.57C355.365 364.951 354.918 366.037 354.023 366.826C353.128 367.615 351.863 368.01 350.228 368.01H344.889ZM346.919 360.811V366.35H350.27C351.214 366.35 351.958 366.107 352.5 365.621C353.05 365.128 353.325 364.451 353.325 363.591C353.325 361.738 352.317 360.811 350.302 360.811H346.919ZM346.919 359.183H349.984C350.872 359.183 351.581 358.961 352.109 358.517C352.645 358.073 352.913 357.47 352.913 356.709C352.913 355.864 352.666 355.25 352.173 354.87C351.679 354.482 350.929 354.288 349.921 354.288H346.919V359.183ZM369.7 363.126C369.51 364.754 368.907 366.012 367.892 366.9C366.884 367.781 365.542 368.221 363.864 368.221C362.046 368.221 360.587 367.57 359.488 366.266C358.396 364.962 357.849 363.218 357.849 361.033V359.553C357.849 358.122 358.103 356.864 358.611 355.779C359.125 354.694 359.851 353.862 360.788 353.284C361.726 352.699 362.811 352.407 364.044 352.407C365.679 352.407 366.99 352.865 367.977 353.781C368.963 354.69 369.538 355.952 369.7 357.566H367.66C367.483 356.339 367.099 355.451 366.507 354.902C365.922 354.352 365.101 354.077 364.044 354.077C362.747 354.077 361.729 354.556 360.989 355.515C360.256 356.473 359.89 357.837 359.89 359.606V361.096C359.89 362.767 360.239 364.095 360.936 365.082C361.634 366.068 362.61 366.562 363.864 366.562C364.992 366.562 365.855 366.308 366.454 365.801C367.061 365.286 367.462 364.395 367.66 363.126H369.7ZM376.476 361.096H374.605V368.01H372.575V352.618H374.605V359.405H376.191L381.571 352.618H384.098L378.22 360.082L384.531 368.01H382.047L376.476 361.096ZM396.096 352.618H398.126V368.01H396.096V356.149L388.517 368.01H386.476V352.618H388.517V364.479L396.096 352.618ZM407.038 358.517L410.727 352.618H413.116L408.253 360.251L413.232 368.01H410.822L407.038 362.006L403.232 368.01H400.832L405.822 360.251L400.949 352.618H403.327L407.038 358.517Z" fill="#383838"/>
<path d="M123.83 110H143V222.5H123.8L123.83 110ZM132.35 110H173.82V128.73H132.35V110ZM132.35 157.28H170V175.93H132.4L132.35 157.28ZM132.35 203.79H173.82V222.5H132.35V203.79Z" fill="#383838"/>
<path d="M196.19 220.3C192.174 218.065 188.944 214.646 186.94 210.51C184.675 205.661 183.575 200.35 183.73 195V137.46C183.583 132.127 184.682 126.833 186.94 122C188.941 117.862 192.172 114.442 196.19 112.21C200.725 109.993 205.707 108.84 210.755 108.84C215.803 108.84 220.785 109.993 225.32 112.21C229.353 114.437 232.588 117.871 234.57 122.03C236.799 126.893 237.883 132.202 237.74 137.55V146.6H218.32V137.55C218.358 135.86 218.066 134.178 217.46 132.6C216.962 131.281 216.054 130.156 214.87 129.39C213.63 128.616 212.191 128.223 210.73 128.26C209.32 128.231 207.931 128.609 206.73 129.35C205.558 130.112 204.653 131.22 204.14 132.52C203.503 134.108 203.2 135.81 203.25 137.52V195C203.204 196.684 203.507 198.359 204.14 199.92C204.663 201.204 205.567 202.296 206.73 203.05C207.932 203.788 209.321 204.163 210.73 204.13C212.198 204.179 213.65 203.804 214.91 203.05C216.07 202.303 216.963 201.207 217.46 199.92C218.072 198.326 218.365 196.627 218.32 194.92V185.9H237.74V195C237.882 200.344 236.797 205.65 234.57 210.51C232.588 214.672 229.354 218.109 225.32 220.34C220.783 222.551 215.802 223.7 210.755 223.7C205.708 223.7 200.727 222.551 196.19 220.34V220.3Z" fill="#383838"/>
<path d="M260.14 220.53C256.001 218.595 252.556 215.436 250.27 211.48C247.896 207.103 246.723 202.177 246.87 197.2V135.3C246.725 130.311 247.898 125.371 250.27 120.98C252.548 117.03 255.997 113.885 260.14 111.98C265.053 109.938 270.32 108.887 275.64 108.887C280.96 108.887 286.228 109.938 291.14 111.98C295.283 113.885 298.732 117.03 301.01 120.98C303.378 125.373 304.551 130.311 304.41 135.3V197.2C304.552 202.176 303.379 207.102 301.01 211.48C298.722 215.434 295.277 218.592 291.14 220.53C286.233 222.593 280.963 223.655 275.64 223.655C270.317 223.655 265.047 222.593 260.14 220.53ZM280.72 203.31C282.112 202.567 283.235 201.406 283.93 199.99C284.701 198.343 285.075 196.538 285.02 194.72V137.62C285.069 135.828 284.696 134.051 283.93 132.43C283.235 131.014 282.112 129.853 280.72 129.11C279.157 128.296 277.412 127.893 275.65 127.94C273.911 127.896 272.189 128.299 270.65 129.11C269.276 129.863 268.169 131.023 267.48 132.43C266.723 134.053 266.353 135.83 266.4 137.62V194.72C266.347 196.537 266.717 198.341 267.48 199.99C268.169 201.397 269.276 202.557 270.65 203.31C272.19 204.118 273.912 204.518 275.65 204.47C277.411 204.52 279.156 204.121 280.72 203.31Z" fill="#383838"/>
<path d="M123.83 231.67H143V344.18H123.83V231.67ZM133 279.73H170.69V297.73H133V279.73ZM158.23 231.67H177.42V344.18H158.19L158.23 231.67Z" fill="#383838"/>
<path d="M204.43 342.21C200.298 340.288 196.854 337.148 194.56 333.21C192.183 328.834 191.006 323.908 191.15 318.93V257C191.009 252.01 192.185 247.071 194.56 242.68C196.838 238.73 200.287 235.585 204.43 233.68C209.342 231.636 214.61 230.584 219.93 230.584C225.25 230.584 230.518 231.636 235.43 233.68C239.573 235.585 243.022 238.73 245.3 242.68C247.682 247.069 248.865 252.008 248.73 257V318.9C248.874 323.878 247.697 328.804 245.32 333.18C243.026 337.118 239.582 340.258 235.45 342.18C230.543 344.243 225.273 345.305 219.95 345.305C214.627 345.305 209.357 344.243 204.45 342.18L204.43 342.21ZM225 325C226.392 324.257 227.515 323.096 228.21 321.68C228.973 320.031 229.343 318.227 229.29 316.41V259.3C229.337 257.51 228.967 255.733 228.21 254.11C227.515 252.694 226.392 251.533 225 250.79C223.436 249.979 221.691 249.58 219.93 249.63C218.191 249.581 216.47 249.981 214.93 250.79C213.556 251.543 212.449 252.703 211.76 254.11C210.994 255.731 210.621 257.508 210.67 259.3V316.4C210.615 318.218 210.989 320.023 211.76 321.67C212.449 323.077 213.556 324.237 214.93 324.99C216.47 325.799 218.191 326.199 219.93 326.15C221.69 326.203 223.435 325.807 225 325Z" fill="#383838"/>
<path d="M254.76 231.67H311.09V250.09H254.76V231.67ZM273.33 241.11H292.52V344.18H273.33V241.11Z" fill="#383838"/>
<path d="M320.22 231.67H339.41V344.18H320.22V231.67ZM328.74 231.67H370.21V250.4H328.74V231.67ZM328.74 278.95H366.34V297.6H328.74V278.95ZM328.74 325.46H370.21V344.18H328.74V325.46Z" fill="#383838"/>
<path d="M380.12 231.67H399.31V344.18H380.12V231.67ZM388.01 325.77H428.56V344.18H388L388.01 325.77Z" fill="#383838"/>
</g>
<defs>
<clipPath id="clip0_80_20">
<rect width="430.56" height="375.07" fill="white" transform="translate(-2)"/>
</clipPath>
</defs>
</svg>
