<svg width="353" height="56" viewBox="0 0 353 56" fill="none" xmlns="http://www.w3.org/2000/svg">
<path d="M33.9023 0.988281V43H27.3105V6.99414H6.59766V43H0.00585938V0.988281H33.9023ZM59.0684 43.5859C57.9941 43.5859 56.9492 43.459 55.9336 43.2051C54.918 42.9512 54.0488 42.6387 53.3262 42.2676C52.6035 41.877 51.959 41.4863 51.3926 41.0957C50.8457 40.6855 50.4453 40.3633 50.1914 40.1289L49.7812 39.6895V55.5977H43.7754V14.2012H49.7812V17.5117C50.0547 17.2383 50.4355 16.877 50.9238 16.4277C51.4316 15.9785 52.4961 15.3926 54.1172 14.6699C55.7383 13.9473 57.3887 13.5859 59.0684 13.5859C62.877 13.5859 66.1777 15.0508 68.9707 17.9805C71.7832 20.8906 73.1895 24.4258 73.1895 28.5859C73.1895 32.7461 71.7832 36.291 68.9707 39.2207C66.1777 42.1309 62.877 43.5859 59.0684 43.5859ZM64.5469 21.8184C62.7891 19.9434 60.7676 19.0059 58.4824 19.0059C56.1973 19.0059 54.1758 19.9434 52.418 21.8184C50.6602 23.6934 49.7812 25.959 49.7812 28.6152C49.7812 31.252 50.6602 33.5078 52.418 35.3828C54.1758 37.2578 56.1973 38.1953 58.4824 38.1953C60.7676 38.1953 62.7891 37.2578 64.5469 35.3828C66.3047 33.5078 67.1836 31.252 67.1836 28.6152C67.1836 25.959 66.3047 23.6934 64.5469 21.8184ZM99.293 35.4121C101.07 33.5566 101.959 31.291 101.959 28.6152C101.959 25.9199 101.07 23.6445 99.293 21.7891C97.5156 19.9336 95.4062 19.0059 92.9648 19.0059C90.5234 19.0059 88.4043 19.9336 86.6074 21.7891C84.8301 23.6445 83.9414 25.9199 83.9414 28.6152C83.9414 31.291 84.8301 33.5566 86.6074 35.4121C88.4043 37.2676 90.5234 38.1953 92.9648 38.1953C95.4062 38.1953 97.5156 37.2676 99.293 35.4121ZM82.418 39.1328C79.4492 36.1445 77.9648 32.6387 77.9648 28.6152C77.9648 24.5723 79.4492 21.0566 82.418 18.0684C85.4062 15.0801 88.9219 13.5859 92.9648 13.5859C97.0078 13.5859 100.514 15.0801 103.482 18.0684C106.471 21.0566 107.965 24.5723 107.965 28.6152C107.965 32.6387 106.471 36.1445 103.482 39.1328C100.514 42.1016 97.0078 43.5859 92.9648 43.5859C88.9219 43.5859 85.4062 42.1016 82.418 39.1328ZM134.918 25.8906L146.021 14.2012H153.229L142.125 26.2129L154.137 43H147.516L138.229 30.1094L134.918 33.7129V43H128.941V33.7129L125.631 30.1094L116.344 43H109.723L121.734 26.2129L110.631 14.2012H117.838L128.941 25.8906V14.2012H134.918V25.8906ZM179.918 14.2012H185.309V43H179.303V24.1035L164.303 43H158.912V14.2012H164.918V33.0977L179.918 14.2012ZM193.717 14.2012H207.516C210.27 14.2012 212.457 14.9141 214.078 16.3398C215.699 17.7461 216.51 19.5332 216.51 21.7012C216.51 22.9316 216.236 24.0547 215.689 25.0703C215.162 26.0664 214.615 26.7598 214.049 27.1504L213.229 27.707C213.346 27.7461 213.512 27.8145 213.727 27.9121C213.941 28.0098 214.332 28.2637 214.898 28.6738C215.465 29.0645 215.953 29.5039 216.363 29.9922C216.793 30.4609 217.174 31.1055 217.506 31.9258C217.857 32.7461 218.033 33.6348 218.033 34.5918C218.033 37.0723 217.145 39.0938 215.367 40.6562C213.609 42.2188 211.197 43 208.131 43H193.717V14.2012ZM208.131 30.1094H199.723V37.9023H208.131C209.322 37.9023 210.27 37.5508 210.973 36.8477C211.676 36.1445 212.027 35.1973 212.027 34.0059C212.027 32.9316 211.666 32.0137 210.943 31.252C210.221 30.4902 209.283 30.1094 208.131 30.1094ZM209.713 24.5137C210.26 23.9668 210.533 23.2344 210.533 22.3164C210.533 21.3789 210.26 20.6465 209.713 20.1191C209.166 19.5723 208.434 19.2988 207.516 19.2988H199.723V25.3047H207.516C208.434 25.3047 209.166 25.041 209.713 24.5137ZM247.711 43H241.705V40.0117C241.627 40.0898 241.49 40.2168 241.295 40.3926C241.119 40.5684 240.748 40.8613 240.182 41.2715C239.635 41.6621 239.039 42.0234 238.395 42.3555C237.75 42.668 236.939 42.9512 235.963 43.2051C234.986 43.459 234 43.5859 233.004 43.5859C230.074 43.5859 227.643 42.7363 225.709 41.0371C223.775 39.3379 222.809 37.3945 222.809 35.207C222.809 32.8438 223.551 30.8613 225.035 29.2598C226.539 27.6582 228.59 26.6426 231.188 26.2129L241.705 24.3965C241.705 22.873 241.139 21.5938 240.006 20.5586C238.893 19.5234 237.457 19.0059 235.699 19.0059C234.176 19.0059 232.789 19.3281 231.539 19.9727C230.309 20.5977 229.459 21.2324 228.99 21.877L228.199 22.9023L224.303 19.0059C224.42 18.8496 224.576 18.6543 224.771 18.4199C224.986 18.166 225.445 17.7363 226.148 17.1309C226.871 16.5059 227.633 15.9492 228.434 15.4609C229.234 14.9727 230.289 14.543 231.598 14.1719C232.926 13.7812 234.293 13.5859 235.699 13.5859C239.215 13.5859 242.096 14.6309 244.342 16.7207C246.588 18.791 247.711 21.3496 247.711 24.3965V43ZM233.912 38.1953C236.354 38.1953 238.258 37.4727 239.625 36.0273C241.012 34.5625 241.705 32.4824 241.705 29.7871V29.2012L232.389 30.6953C231.314 30.8906 230.445 31.3301 229.781 32.0137C229.117 32.6973 228.785 33.5566 228.785 34.5918C228.785 35.5488 229.244 36.3887 230.162 37.1113C231.1 37.834 232.35 38.1953 233.912 38.1953ZM262.125 30.9883V43H256.119V14.2012H262.125V25.5977H276.217V14.2012H282.223V43H276.217V30.9883H262.125ZM311.637 14.2012H317.027V43H311.021V24.1035L296.021 43H290.631V14.2012H296.637V33.0977L311.637 14.2012ZM352.125 30.6953H329.625C329.938 32.7266 330.934 34.4844 332.613 35.9688C334.312 37.4531 336.324 38.1953 338.648 38.1953C340.328 38.1953 341.891 37.8145 343.336 37.0527C344.801 36.291 345.836 35.5488 346.441 34.8262L347.35 33.7129L351.246 37.6094C351.129 37.7656 350.943 37.9902 350.689 38.2832C350.455 38.5566 349.938 39.0352 349.137 39.7188C348.336 40.3828 347.486 40.9785 346.588 41.5059C345.689 42.0137 344.518 42.4922 343.072 42.9414C341.646 43.3711 340.172 43.5859 338.648 43.5859C334.566 43.5859 331.041 42.0918 328.072 39.1035C325.123 36.0957 323.648 32.4922 323.648 28.293C323.648 24.25 325.084 20.793 327.955 17.9219C330.846 15.0312 334.303 13.5859 338.326 13.5859C342.369 13.5859 345.729 14.9336 348.404 17.6289C351.1 20.3047 352.447 23.6641 352.447 27.707L352.125 30.6953ZM338.326 18.7129C336.158 18.7129 334.332 19.3574 332.848 20.6465C331.383 21.916 330.396 23.5664 329.889 25.5977H346.559C346.207 23.5664 345.299 21.916 343.834 20.6465C342.369 19.3574 340.533 18.7129 338.326 18.7129Z" fill="url(#paint0_linear_23_34)"/>
<defs>
<linearGradient id="paint0_linear_23_34" x1="210" y1="-15" x2="210" y2="56" gradientUnits="userSpaceOnUse">
<stop stop-color="white"/>
<stop offset="1" stop-color="white" stop-opacity="0.6"/>
</linearGradient>
</defs>
</svg>
