<svg width="19" height="14" viewBox="0 0 19 14" fill="none" xmlns="http://www.w3.org/2000/svg">
<path d="M7.3103 13.3523C7.40645 13.3528 7.50177 13.336 7.59078 13.3027C7.6798 13.2695 7.76076 13.2206 7.82903 13.1587C7.89751 13.0967 7.95186 13.0228 7.98895 12.9415C8.02604 12.8602 8.04514 12.7729 8.04514 12.6848C8.04514 12.5967 8.02604 12.5094 7.98895 12.4281C7.95186 12.3468 7.89751 12.2729 7.82903 12.2109L1.765 6.67751L7.82903 1.14412C7.9666 1.01843 8.04389 0.847959 8.04389 0.670209C8.04389 0.492458 7.9666 0.321988 7.82903 0.1963C7.69145 0.0706111 7.50486 0 7.3103 0C7.11574 0 6.92914 0.0706111 6.79157 0.1963L0.216112 6.2036C0.147635 6.26565 0.0932789 6.33947 0.0561867 6.42081C0.0190964 6.50215 0 6.58939 0 6.67751C0 6.76562 0.0190964 6.85287 0.0561867 6.9342C0.0932789 7.01554 0.147635 7.08936 0.216112 7.15142L6.79157 13.1587C6.85984 13.2206 6.9408 13.2695 7.02981 13.3027C7.11883 13.336 7.21415 13.3528 7.3103 13.3523Z" fill="#565656"/>
<path d="M0.734842 7.34498H18.2694C18.4632 7.34498 18.649 7.27466 18.786 7.14949C18.923 7.02431 19 6.85453 19 6.67751C19 6.50048 18.923 6.33071 18.786 6.20553C18.649 6.08035 18.4632 6.01003 18.2694 6.01003H0.734842C0.541073 6.01003 0.35524 6.08035 0.218225 6.20553C0.0812092 6.33071 0.00423622 6.50048 0.00423622 6.67751C0.00423622 6.85453 0.0812092 7.02431 0.218225 7.14949C0.35524 7.27466 0.541073 7.34498 0.734842 7.34498Z" fill="#565656"/>
</svg>
