<svg width="19" height="14" viewBox="0 0 19 14" fill="none" xmlns="http://www.w3.org/2000/svg">
<path d="M11.6897 13.3523C11.5935 13.3528 11.4982 13.336 11.4092 13.3027C11.3202 13.2695 11.2392 13.2206 11.171 13.1587C11.1025 13.0967 11.0481 13.0228 11.011 12.9415C10.974 12.8602 10.9549 12.7729 10.9549 12.6848C10.9549 12.5967 10.974 12.5094 11.011 12.4281C11.0481 12.3468 11.1025 12.2729 11.171 12.2109L17.235 6.67751L11.171 1.14412C11.0334 1.01843 10.9561 0.847959 10.9561 0.670209C10.9561 0.492458 11.0334 0.321988 11.171 0.1963C11.3085 0.0706111 11.4951 0 11.6897 0C11.8843 0 12.0709 0.0706111 12.2084 0.1963L18.7839 6.2036C18.8524 6.26565 18.9067 6.33947 18.9438 6.42081C18.9809 6.50215 19 6.58939 19 6.67751C19 6.76562 18.9809 6.85287 18.9438 6.9342C18.9067 7.01554 18.8524 7.08936 18.7839 7.15142L12.2084 13.1587C12.1402 13.2206 12.0592 13.2695 11.9702 13.3027C11.8812 13.336 11.7859 13.3528 11.6897 13.3523Z" fill="#565656"/>
<path d="M18.2652 7.34498H0.730606C0.536837 7.34498 0.351005 7.27466 0.21399 7.14949C0.0769743 7.02431 0 6.85453 0 6.67751C0 6.50048 0.0769743 6.33071 0.21399 6.20553C0.351005 6.08035 0.536837 6.01003 0.730606 6.01003H18.2652C18.4589 6.01003 18.6448 6.08035 18.7818 6.20553C18.9188 6.33071 18.9958 6.50048 18.9958 6.67751C18.9958 6.85453 18.9188 7.02431 18.7818 7.14949C18.6448 7.27466 18.4589 7.34498 18.2652 7.34498Z" fill="#565656"/>
</svg>
