<svg width="29" height="29" viewBox="0 0 29 29" fill="none" xmlns="http://www.w3.org/2000/svg">
<circle cx="8.22632" cy="20.4092" r="8" fill="white"/>
<path d="M23.093 5.29284C23.093 4.70735 23.5693 4.23096 24.1549 4.23096C24.7405 4.23096 25.2169 4.70725 25.2169 5.29284C25.2169 5.87842 24.7405 6.35481 24.1549 6.35481C23.5693 6.35481 23.093 5.87842 23.093 5.29284Z" fill="#353535"/>
<path d="M23.4216 21.2217C26.071 21.2217 28.2263 19.0664 28.2263 16.4172V6.02635C28.2263 3.37701 26.071 1.22168 23.4218 1.22168H13.031C10.3816 1.22168 8.22632 3.37701 8.22632 6.02635V16.4172C8.22632 19.0664 10.3816 21.2217 13.031 21.2217H23.4216Z" stroke="#353535" stroke-width="1.5"/>
<path fill-rule="evenodd" clip-rule="evenodd" d="M18.2263 16.0884C15.5429 16.0884 13.3596 13.9053 13.3596 11.2217C13.3596 8.53831 15.5429 6.35498 18.2263 6.35498C20.9099 6.35498 23.0931 8.53831 23.0931 11.2217C23.0931 13.9053 20.9099 16.0884 18.2263 16.0884Z" stroke="#353535" stroke-width="1.5"/>
</svg>
