<svg width="22" height="16" viewBox="0 0 22 16" fill="none" xmlns="http://www.w3.org/2000/svg">
<path d="M8.46456 16C8.57589 16.0006 8.68626 15.9804 8.78933 15.9406C8.8924 15.9008 8.98614 15.8422 9.06519 15.768C9.14448 15.6937 9.20742 15.6052 9.25037 15.5077C9.29332 15.4103 9.31543 15.3057 9.31543 15.2002C9.31543 15.0946 9.29332 14.99 9.25037 14.8926C9.20742 14.7951 9.14448 14.7066 9.06519 14.6323L2.04368 8.00163L9.06519 1.37099C9.22449 1.22038 9.31398 1.01611 9.31398 0.803108C9.31398 0.590111 9.22449 0.385837 9.06519 0.235225C8.90589 0.084613 8.68984 0 8.46456 0C8.23927 0 8.02322 0.084613 7.86392 0.235225L0.250235 7.43375C0.170944 7.5081 0.108007 7.59656 0.0650597 7.69403C0.02211 7.7915 0 7.89604 0 8.00163C0 8.10722 0.02211 8.21176 0.0650597 8.30923C0.108007 8.40669 0.170944 8.49516 0.250235 8.56951L7.86392 15.768C7.94297 15.8422 8.03671 15.9008 8.13978 15.9406C8.24286 15.9804 8.35322 16.0006 8.46456 16Z" fill="white"/>
<path d="M0.85087 8.80147H21.154C21.3784 8.80147 21.5936 8.7172 21.7522 8.5672C21.9109 8.4172 22 8.21376 22 8.00163C22 7.7895 21.9109 7.58606 21.7522 7.43606C21.5936 7.28606 21.3784 7.20179 21.154 7.20179H0.85087C0.626507 7.20179 0.411331 7.28606 0.252682 7.43606C0.0940323 7.58606 0.00490379 7.7895 0.00490379 8.00163C0.00490379 8.21376 0.0940323 8.4172 0.252682 8.5672C0.411331 8.7172 0.626507 8.80147 0.85087 8.80147Z" fill="white"/>
</svg>
