<svg width="101" height="88" viewBox="0 0 101 88" fill="none" xmlns="http://www.w3.org/2000/svg">
<path opacity="0.8" d="M34.5909 68.8821C53.6949 68.8821 69.1818 53.4623 69.1818 34.441C69.1818 15.4198 53.6949 0 34.5909 0C15.4869 0 0 15.4198 0 34.441C0 53.4623 15.4869 68.8821 34.5909 68.8821Z" fill="#467856"/>
<path d="M63.0368 86.8346H62.5632V85.9531H59.9718V86.837H59.4957L59.4932 85.5655H59.7883C59.9437 85.391 60.0669 85.1573 60.1578 84.8643C60.2504 84.5696 60.3082 84.247 60.3314 83.8964L60.4107 82.3582H62.5706V85.5655H63.0418L63.0368 86.8346ZM60.3314 85.5655H62.092V82.7483H60.8695L60.8174 83.805C60.7959 84.2182 60.7406 84.5704 60.6513 84.8618C60.5637 85.1531 60.457 85.3877 60.3314 85.5655Z" fill="#383838"/>
<path d="M66.3251 84.2717C66.3251 84.6239 66.2655 84.9317 66.1465 85.1951C66.0275 85.4568 65.8588 85.6568 65.6406 85.7951C65.4224 85.9334 65.1678 86.0025 64.8769 86.0025C64.5925 86.0025 64.3404 85.9334 64.1205 85.7951C63.9006 85.6552 63.7295 85.4568 63.6072 85.2001C63.4865 84.9416 63.4245 84.6429 63.4212 84.3038V84.0445C63.4212 83.6989 63.4816 83.3935 63.6022 83.1285C63.7229 82.8635 63.8932 82.661 64.1131 82.5211C64.3346 82.3796 64.5875 82.3088 64.8719 82.3088C65.1612 82.3088 65.4158 82.3787 65.6357 82.5187C65.8572 82.6569 66.0275 82.8586 66.1465 83.1236C66.2655 83.3869 66.3251 83.6939 66.3251 84.0445V84.2717ZM65.8514 84.0396C65.8514 83.6133 65.7654 83.2865 65.5935 83.0594C65.4216 82.8306 65.181 82.7162 64.8719 82.7162C64.571 82.7162 64.3338 82.8306 64.1602 83.0594C63.9883 83.2865 63.8998 83.6026 63.8949 84.0075V84.2717C63.8949 84.6848 63.9816 85.0099 64.1552 85.247C64.3305 85.4823 64.571 85.6 64.8769 85.6C65.1843 85.6 65.4224 85.4889 65.591 85.2667C65.7597 85.0429 65.8465 84.7227 65.8514 84.3063V84.0396Z" fill="#383838"/>
<path d="M67.6542 82.3582L68.8346 85.2914L70.015 82.3582H70.6325V85.9531H70.1563V84.5532L70.201 83.0421L69.0156 85.9531H68.6511L67.4682 83.0495L67.5154 84.5532V85.9531H67.0392V82.3582H67.6542Z" fill="#383838"/>
<path d="M73.6752 82.7483H71.9343V83.8248H72.832C73.209 83.8297 73.5032 83.926 73.7148 84.1137C73.9264 84.3013 74.0322 84.5565 74.0322 84.8791C74.0322 85.2033 73.9256 85.4618 73.7124 85.6544C73.4991 85.8469 73.2081 85.9465 72.8395 85.9531H71.4557V82.3582H73.6752V82.7483ZM71.9343 84.2149V85.5655H72.8048C73.0412 85.5655 73.2247 85.5029 73.3553 85.3778C73.4875 85.2527 73.5536 85.0848 73.5536 84.8741C73.5536 84.6717 73.49 84.512 73.3627 84.3951C73.2371 84.2783 73.0577 84.2182 72.8246 84.2149H71.9343Z" fill="#383838"/>
<path d="M75.1531 84.5458V85.9531H74.677V82.3582H76.0086C76.4038 82.3582 76.7129 82.4586 76.9361 82.6594C77.1609 82.8602 77.2733 83.126 77.2733 83.4569C77.2733 83.8059 77.1634 84.075 76.9435 84.2643C76.7253 84.4519 76.412 84.5458 76.0037 84.5458H75.1531ZM75.1531 84.1581H76.0086C76.2632 84.1581 76.4583 84.0989 76.5939 83.9803C76.7294 83.8602 76.7972 83.6873 76.7972 83.4618C76.7972 83.2479 76.7294 83.0767 76.5939 82.9483C76.4583 82.8199 76.2723 82.7532 76.0359 82.7483H75.1531V84.1581Z" fill="#383838"/>
<path d="M80.6583 84.2717C80.6583 84.6239 80.5987 84.9317 80.4797 85.1951C80.3607 85.4568 80.1921 85.6568 79.9738 85.7951C79.7556 85.9334 79.501 86.0025 79.2101 86.0025C78.9257 86.0025 78.6736 85.9334 78.4537 85.7951C78.2338 85.6552 78.0627 85.4568 77.9404 85.2001C77.8197 84.9416 77.7577 84.6429 77.7544 84.3038V84.0445C77.7544 83.6989 77.8148 83.3935 77.9354 83.1285C78.0561 82.8635 78.2264 82.661 78.4463 82.5211C78.6678 82.3796 78.9208 82.3088 79.2051 82.3088C79.4944 82.3088 79.749 82.3787 79.9689 82.5187C80.1904 82.6569 80.3607 82.8586 80.4797 83.1236C80.5987 83.3869 80.6583 83.6939 80.6583 84.0445V84.2717ZM80.1846 84.0396C80.1846 83.6133 80.0987 83.2865 79.9267 83.0594C79.7548 82.8306 79.5143 82.7162 79.2051 82.7162C78.9042 82.7162 78.667 82.8306 78.4934 83.0594C78.3215 83.2865 78.233 83.6026 78.2281 84.0075V84.2717C78.2281 84.6848 78.3149 85.0099 78.4884 85.247C78.6637 85.4823 78.9042 85.6 79.2101 85.6C79.5176 85.6 79.7556 85.4889 79.9242 85.2667C80.0929 85.0429 80.1797 84.7227 80.1846 84.3063V84.0396Z" fill="#383838"/>
<path d="M81.3724 85.9531V82.3582H82.5528C82.9446 82.3582 83.2389 82.4388 83.4356 82.6001C83.634 82.7615 83.7332 83.0001 83.7332 83.3162C83.7332 83.4841 83.6853 83.633 83.5894 83.7631C83.4935 83.8915 83.3629 83.991 83.1976 84.0618C83.3926 84.1161 83.5464 84.2198 83.6588 84.3729C83.7729 84.5244 83.8299 84.7054 83.8299 84.9161C83.8299 85.2387 83.7249 85.4922 83.515 85.6766C83.305 85.8609 83.0083 85.9531 82.6247 85.9531H81.3724ZM81.8486 84.2717V85.5655H82.6347C82.8562 85.5655 83.0306 85.5087 83.1579 85.3951C83.2868 85.2799 83.3513 85.1219 83.3513 84.921C83.3513 84.4881 83.1149 84.2717 82.6421 84.2717H81.8486ZM81.8486 83.8915H82.5677C82.776 83.8915 82.9422 83.8396 83.0661 83.7359C83.1918 83.6322 83.2546 83.4915 83.2546 83.3137C83.2546 83.1162 83.1967 82.973 83.081 82.8841C82.9653 82.7935 82.7892 82.7483 82.5528 82.7483H81.8486V83.8915Z" fill="#383838"/>
<path d="M87.1925 84.8124C87.1479 85.1926 87.0065 85.4865 86.7685 85.6939C86.5321 85.8996 86.2171 86.0025 85.8237 86.0025C85.3971 86.0025 85.0549 85.8502 84.797 85.5457C84.5408 85.2412 84.4127 84.8338 84.4127 84.3235V83.9779C84.4127 83.6437 84.4722 83.3499 84.5912 83.0964C84.7119 82.8429 84.8822 82.6487 85.1021 82.5137C85.3219 82.3771 85.5765 82.3088 85.8658 82.3088C86.2494 82.3088 86.5569 82.4158 86.7883 82.6298C87.0198 82.8421 87.1545 83.1367 87.1925 83.5137H86.7139C86.6726 83.2273 86.5825 83.0199 86.4436 82.8915C86.3064 82.7631 86.1138 82.6989 85.8658 82.6989C85.5616 82.6989 85.3228 82.8108 85.1492 83.0347C84.9772 83.2586 84.8913 83.5771 84.8913 83.9902V84.3384C84.8913 84.7285 84.9731 85.0387 85.1368 85.2692C85.3004 85.4996 85.5294 85.6149 85.8237 85.6149C86.0882 85.6149 86.2907 85.5556 86.4312 85.4371C86.5734 85.3169 86.6676 85.1087 86.7139 84.8124H87.1925Z" fill="#383838"/>
<path d="M88.7821 84.3384H88.3431V85.9531H87.867V82.3582H88.3431V83.9433H88.7151L89.9773 82.3582H90.57L89.1912 84.1013L90.6717 85.9531H90.0889L88.7821 84.3384Z" fill="#383838"/>
<path d="M93.3846 82.3582H93.8607V85.9531H93.3846V83.1828L91.6066 85.9531H91.128V82.3582H91.6066V85.1284L93.3846 82.3582Z" fill="#383838"/>
<path d="M95.9511 83.7359L96.8166 82.3582H97.377L96.2363 84.1408L97.4043 85.9531H96.8389L95.9511 84.5507L95.0584 85.9531H94.4955L95.666 84.1408L94.5228 82.3582H95.0807L95.9511 83.7359Z" fill="#383838"/>
<path d="M29.5168 25.6918H34.0137V51.9675H29.5098L29.5168 25.6918ZM31.5154 25.6918H41.2434V30.0664H31.5154V25.6918ZM31.5154 36.7346H40.3473V41.0905H31.5271L31.5154 36.7346ZM31.5154 47.5976H41.2434V51.9675H31.5154V47.5976Z" fill="#383838"/>
<path d="M46.4909 51.4537C45.5488 50.9317 44.7911 50.1332 44.321 49.1671C43.7896 48.0346 43.5318 46.794 43.568 45.5446V32.1054C43.5335 30.8599 43.7913 29.6235 44.321 28.4945C44.7905 27.528 45.5483 26.7294 46.4909 26.208C47.5547 25.6901 48.7233 25.4209 49.9075 25.4209C51.0917 25.4209 52.2603 25.6901 53.3242 26.208C54.2702 26.7281 55.029 27.5302 55.494 28.5016C56.0168 29.6374 56.2712 30.8774 56.2376 32.1264V34.2402H51.6821V32.1264C51.691 31.7317 51.6225 31.339 51.4804 30.9703C51.3635 30.6622 51.1506 30.3994 50.8728 30.2206C50.582 30.0398 50.2443 29.948 49.9016 29.9566C49.5708 29.9501 49.2451 30.0385 48.9633 30.2112C48.6885 30.3892 48.4762 30.648 48.3558 30.9516C48.2063 31.3225 48.1352 31.72 48.147 32.1194V45.5446C48.1363 45.9378 48.2074 46.3291 48.3558 46.6937C48.4784 46.9936 48.6904 47.2487 48.9633 47.4247C49.2453 47.5968 49.571 47.6844 49.9016 47.677C50.2461 47.6885 50.5865 47.6009 50.8822 47.4247C51.1542 47.2502 51.3637 46.9942 51.4804 46.6937C51.624 46.3214 51.6925 45.9246 51.6821 45.5259V43.4192H56.2376V45.5446C56.2709 46.7928 56.0165 48.032 55.494 49.1671C55.0291 50.1392 54.2704 50.942 53.3242 51.463C52.2598 51.9794 51.0914 52.2477 49.9075 52.2477C48.7236 52.2477 47.5552 51.9794 46.4909 51.463V51.4537Z" fill="#383838"/>
<path d="M61.4922 51.5074C60.5212 51.0555 59.713 50.3177 59.1769 49.3937C58.6201 48.3715 58.3449 47.2208 58.3793 46.0584V31.6009C58.3452 30.4356 58.6204 29.282 59.1769 28.2563C59.7112 27.3337 60.5203 26.5991 61.4922 26.1543C62.6445 25.6773 63.8802 25.4318 65.1281 25.4318C66.3761 25.4318 67.6117 25.6773 68.7641 26.1543C69.736 26.5991 70.5451 27.3337 71.0794 28.2563C71.6349 29.2824 71.9099 30.4357 71.8769 31.6009V46.0584C71.9102 47.2206 71.6351 48.3711 71.0794 49.3937C70.5426 50.3172 69.7346 51.0549 68.7641 51.5074C67.613 51.9892 66.3768 52.2373 65.1281 52.2373C63.8794 52.2373 62.6433 51.9892 61.4922 51.5074ZM66.3198 47.4855C66.6463 47.312 66.9097 47.0408 67.0728 46.71C67.2537 46.3254 67.3413 45.9037 67.3285 45.4792V32.1428C67.3402 31.7243 67.2526 31.309 67.0728 30.9306C66.9097 30.5999 66.6463 30.3286 66.3198 30.1552C65.9531 29.965 65.5438 29.871 65.1305 29.8819C64.7224 29.8709 64.3184 29.965 63.9576 30.1552C63.6341 30.3303 63.3734 30.6013 63.2116 30.9306C63.0338 31.3096 62.947 31.7246 62.9583 32.1428V45.4792C62.9458 45.9035 63.0325 46.3248 63.2116 46.71C63.3734 47.0394 63.6341 47.3104 63.9576 47.4855C64.3186 47.6748 64.7226 47.7682 65.1305 47.7564C65.5436 47.768 65.9529 47.6748 66.3198 47.4855Z" fill="#383838"/>
<path d="M29.5168 54.1093H34.0137V80.3873H29.5168V54.1093ZM31.6679 65.3343H40.5091V69.5384H31.6679V65.3343ZM37.5863 54.1093H42.0878V80.3873H37.5769L37.5863 54.1093Z" fill="#383838"/>
<path d="M48.4238 79.9272C47.4545 79.4784 46.6466 78.7448 46.1085 77.8252C45.5509 76.8032 45.2749 75.6525 45.3086 74.4899V60.0254C45.2756 58.8599 45.5515 57.7064 46.1085 56.6808C46.6428 55.7581 47.4519 55.0236 48.4238 54.5787C49.5762 54.1018 50.8118 53.8563 52.0598 53.8563C53.3077 53.8563 54.5434 54.1018 55.6957 54.5787C56.6668 55.024 57.475 55.7585 58.0087 56.6808C58.5681 57.7057 58.8465 58.8593 58.8156 60.0254V74.4829C58.8493 75.6455 58.5733 76.7962 58.0157 77.8181C57.4781 78.7373 56.671 79.4707 55.7028 79.9202C54.5516 80.402 53.3155 80.6501 52.0668 80.6501C50.8181 80.6501 49.582 80.402 48.4308 79.9202L48.4238 79.9272ZM53.2491 75.9076C53.5756 75.7342 53.839 75.4629 54.0021 75.1322C54.1812 74.747 54.2679 74.3256 54.2554 73.9013V60.5626C54.2664 60.1445 54.1797 59.7295 54.0021 59.3504C53.839 59.0197 53.5756 58.7484 53.2491 58.575C52.8822 58.3856 52.4729 58.2924 52.0598 58.3041C51.6519 58.2927 51.248 58.386 50.8869 58.575C50.5646 58.7508 50.3048 59.0217 50.1433 59.3504C49.9648 59.7293 49.8772 60.1443 49.8876 60.5626V73.899C49.8759 74.3235 49.9634 74.7448 50.1433 75.1299C50.3048 75.4586 50.5646 75.7294 50.8869 75.9053C51.248 76.0942 51.6519 76.1875 52.0598 76.1762C52.4727 76.1886 52.8819 76.0961 53.2491 75.9076Z" fill="#383838"/>
<path d="M60.2301 54.1093H73.4439V58.4115H60.2301V54.1093ZM64.5862 56.3141H69.0878V80.3873H64.5862V56.3141Z" fill="#383838"/>
<path d="M75.5856 54.1093H80.0895V80.3873H75.5856V54.1093ZM77.5842 54.1093H87.3122V58.4839H77.5842V54.1093ZM77.5842 65.1521H86.4044V69.508H77.5842V65.1521ZM77.5842 76.0151H87.3122V80.3873H77.5842V76.0151Z" fill="#383838"/>
<path d="M89.6369 54.1093H94.1384V80.3873H89.6369V54.1093ZM91.4877 76.0875H101V80.3873H91.4853L91.4877 76.0875Z" fill="#383838"/>
</svg>
