<svg width="321" height="85" viewBox="0 0 321 85" fill="none" xmlns="http://www.w3.org/2000/svg">
<path d="M23.5742 0.992188V29H19.1797V16.793H5.37109V29H0.976562V0.992188H5.37109V12.8086H19.1797V0.992188H23.5742ZM45.5664 29H41.5625V27.0078C41.5104 27.0599 41.4193 27.1445 41.2891 27.2617C41.1719 27.3789 40.9245 27.5742 40.5469 27.8477C40.1823 28.1081 39.7852 28.349 39.3555 28.5703C38.9258 28.7786 38.3854 28.9674 37.7344 29.1367C37.0833 29.306 36.4258 29.3906 35.7617 29.3906C33.8086 29.3906 32.1875 28.8242 30.8984 27.6914C29.6094 26.5586 28.9648 25.263 28.9648 23.8047C28.9648 22.2292 29.4596 20.9076 30.4492 19.8398C31.4518 18.7721 32.819 18.0951 34.5508 17.8086L41.5625 16.5977C41.5625 15.582 41.1849 14.7292 40.4297 14.0391C39.6875 13.349 38.7305 13.0039 37.5586 13.0039C36.543 13.0039 35.6185 13.2188 34.7852 13.6484C33.9648 14.0651 33.3984 14.4883 33.0859 14.918L32.5586 15.6016L29.9609 13.0039C30.0391 12.8997 30.1432 12.7695 30.2734 12.6133C30.4167 12.444 30.7227 12.1576 31.1914 11.7539C31.6732 11.3372 32.181 10.9661 32.7148 10.6406C33.2487 10.3151 33.9518 10.0286 34.8242 9.78125C35.7096 9.52083 36.6211 9.39062 37.5586 9.39062C39.9023 9.39062 41.8229 10.0872 43.3203 11.4805C44.8177 12.8607 45.5664 14.5664 45.5664 16.5977V29ZM36.3672 25.7969C37.9948 25.7969 39.2643 25.3151 40.1758 24.3516C41.1003 23.375 41.5625 21.9883 41.5625 20.1914V19.8008L35.3516 20.7969C34.6354 20.9271 34.056 21.2201 33.6133 21.6758C33.1706 22.1315 32.9492 22.7044 32.9492 23.3945C32.9492 24.0326 33.2552 24.5924 33.8672 25.0742C34.4922 25.556 35.3255 25.7969 36.3672 25.7969ZM51.1719 29V9.80078H55.1758V25.4062H62.168V9.80078H66.1719V25.4062H73.1836V9.80078H77.168V29H51.1719ZM96.7773 9.80078H100.371V29H96.3672V16.4023L86.3672 29H82.7734V9.80078H86.7773V22.3984L96.7773 9.80078ZM117.988 13.3945V29H113.984V9.80078H131.387V29H127.383V13.3945H117.988ZM147.188 29.3906C146.471 29.3906 145.775 29.306 145.098 29.1367C144.421 28.9674 143.841 28.7591 143.359 28.5117C142.878 28.2513 142.448 27.9909 142.07 27.7305C141.706 27.457 141.439 27.2422 141.27 27.0859L140.996 26.793V37.3984H136.992V9.80078H140.996V12.0078C141.178 11.8255 141.432 11.5846 141.758 11.2852C142.096 10.9857 142.806 10.5951 143.887 10.1133C144.967 9.63151 146.068 9.39062 147.188 9.39062C149.727 9.39062 151.927 10.3672 153.789 12.3203C155.664 14.2604 156.602 16.6172 156.602 19.3906C156.602 22.1641 155.664 24.5273 153.789 26.4805C151.927 28.4206 149.727 29.3906 147.188 29.3906ZM150.84 14.8789C149.668 13.6289 148.32 13.0039 146.797 13.0039C145.273 13.0039 143.926 13.6289 142.754 14.8789C141.582 16.1289 140.996 17.6393 140.996 19.4102C140.996 21.168 141.582 22.6719 142.754 23.9219C143.926 25.1719 145.273 25.7969 146.797 25.7969C148.32 25.7969 149.668 25.1719 150.84 23.9219C152.012 22.6719 152.598 21.168 152.598 19.4102C152.598 17.6393 152.012 16.1289 150.84 14.8789ZM174.004 23.9414C175.189 22.7044 175.781 21.194 175.781 19.4102C175.781 17.6133 175.189 16.0964 174.004 14.8594C172.819 13.6224 171.413 13.0039 169.785 13.0039C168.158 13.0039 166.745 13.6224 165.547 14.8594C164.362 16.0964 163.77 17.6133 163.77 19.4102C163.77 21.194 164.362 22.7044 165.547 23.9414C166.745 25.1784 168.158 25.7969 169.785 25.7969C171.413 25.7969 172.819 25.1784 174.004 23.9414ZM162.754 26.4219C160.775 24.4297 159.785 22.0924 159.785 19.4102C159.785 16.7148 160.775 14.3711 162.754 12.3789C164.746 10.3867 167.09 9.39062 169.785 9.39062C172.48 9.39062 174.818 10.3867 176.797 12.3789C178.789 14.3711 179.785 16.7148 179.785 19.4102C179.785 22.0924 178.789 24.4297 176.797 26.4219C174.818 28.401 172.48 29.3906 169.785 29.3906C167.09 29.3906 164.746 28.401 162.754 26.4219ZM197.578 9.80078V13.3945H188.184V29H184.18V9.80078H197.578ZM210.977 29.3906C210.26 29.3906 209.564 29.306 208.887 29.1367C208.21 28.9674 207.63 28.7591 207.148 28.5117C206.667 28.2513 206.237 27.9909 205.859 27.7305C205.495 27.457 205.228 27.2422 205.059 27.0859L204.785 26.793V37.3984H200.781V9.80078H204.785V12.0078C204.967 11.8255 205.221 11.5846 205.547 11.2852C205.885 10.9857 206.595 10.5951 207.676 10.1133C208.757 9.63151 209.857 9.39062 210.977 9.39062C213.516 9.39062 215.716 10.3672 217.578 12.3203C219.453 14.2604 220.391 16.6172 220.391 19.3906C220.391 22.1641 219.453 24.5273 217.578 26.4805C215.716 28.4206 213.516 29.3906 210.977 29.3906ZM214.629 14.8789C213.457 13.6289 212.109 13.0039 210.586 13.0039C209.062 13.0039 207.715 13.6289 206.543 14.8789C205.371 16.1289 204.785 17.6393 204.785 19.4102C204.785 21.168 205.371 22.6719 206.543 23.9219C207.715 25.1719 209.062 25.7969 210.586 25.7969C212.109 25.7969 213.457 25.1719 214.629 23.9219C215.801 22.6719 216.387 21.168 216.387 19.4102C216.387 17.6393 215.801 16.1289 214.629 14.8789ZM240.176 29H236.172V27.0078C236.12 27.0599 236.029 27.1445 235.898 27.2617C235.781 27.3789 235.534 27.5742 235.156 27.8477C234.792 28.1081 234.395 28.349 233.965 28.5703C233.535 28.7786 232.995 28.9674 232.344 29.1367C231.693 29.306 231.035 29.3906 230.371 29.3906C228.418 29.3906 226.797 28.8242 225.508 27.6914C224.219 26.5586 223.574 25.263 223.574 23.8047C223.574 22.2292 224.069 20.9076 225.059 19.8398C226.061 18.7721 227.428 18.0951 229.16 17.8086L236.172 16.5977C236.172 15.582 235.794 14.7292 235.039 14.0391C234.297 13.349 233.34 13.0039 232.168 13.0039C231.152 13.0039 230.228 13.2188 229.395 13.6484C228.574 14.0651 228.008 14.4883 227.695 14.918L227.168 15.6016L224.57 13.0039C224.648 12.8997 224.753 12.7695 224.883 12.6133C225.026 12.444 225.332 12.1576 225.801 11.7539C226.283 11.3372 226.79 10.9661 227.324 10.6406C227.858 10.3151 228.561 10.0286 229.434 9.78125C230.319 9.52083 231.23 9.39062 232.168 9.39062C234.512 9.39062 236.432 10.0872 237.93 11.4805C239.427 12.8607 240.176 14.5664 240.176 16.5977V29ZM230.977 25.7969C232.604 25.7969 233.874 25.3151 234.785 24.3516C235.71 23.375 236.172 21.9883 236.172 20.1914V19.8008L229.961 20.7969C229.245 20.9271 228.665 21.2201 228.223 21.6758C227.78 22.1315 227.559 22.7044 227.559 23.3945C227.559 24.0326 227.865 24.5924 228.477 25.0742C229.102 25.556 229.935 25.7969 230.977 25.7969ZM255.977 18.1992L262.988 9.80078H266.191V29H262.188V16.4023L255.977 23.8047L249.785 16.4023V29H245.781V9.80078H248.984L255.977 18.1992ZM281.992 18.1992L289.004 9.80078H292.207V29H288.203V16.4023L281.992 23.8047L275.801 16.4023V29H271.797V9.80078H275L281.992 18.1992ZM301.816 25.6016H306.016C306.927 25.6016 307.689 25.2956 308.301 24.6836C308.913 24.0716 309.219 23.3099 309.219 22.3984C309.219 21.487 308.913 20.7253 308.301 20.1133C307.689 19.5013 306.927 19.1953 306.016 19.1953H301.816V25.6016ZM311.23 17.6719C312.559 18.9089 313.223 20.4909 313.223 22.418C313.223 24.332 312.559 25.9076 311.23 27.1445C309.915 28.3815 308.177 29 306.016 29H297.812V9.80078H301.816V15.7969H306.016C308.177 15.7969 309.915 16.4219 311.23 17.6719ZM320.02 9.80078V29H316.016V9.80078H320.02ZM36.3281 56.8008H39.9219V76H35.918V63.4023L25.918 76H22.3242V56.8008H26.3281V69.3984L36.3281 56.8008ZM63.7305 65.1992L70.7422 56.8008H73.9453V76H69.9414V63.4023L63.7305 70.8047L57.5391 63.4023V76H53.5352V56.8008H56.7383L63.7305 65.1992ZM97.3438 67.7969H82.3438C82.5521 69.151 83.2161 70.3229 84.3359 71.3125C85.4688 72.3021 86.8099 72.7969 88.3594 72.7969C89.4792 72.7969 90.5208 72.543 91.4844 72.0352C92.4609 71.5273 93.151 71.0326 93.5547 70.5508L94.1602 69.8086L96.7578 72.4062C96.6797 72.5104 96.556 72.6602 96.3867 72.8555C96.2305 73.0378 95.8854 73.3568 95.3516 73.8125C94.8177 74.2552 94.2513 74.6523 93.6523 75.0039C93.0534 75.3424 92.2721 75.6615 91.3086 75.9609C90.3581 76.2474 89.375 76.3906 88.3594 76.3906C85.638 76.3906 83.2878 75.3945 81.3086 73.4023C79.3424 71.3971 78.3594 68.9948 78.3594 66.1953C78.3594 63.5 79.3164 61.1953 81.2305 59.2812C83.1576 57.3542 85.4622 56.3906 88.1445 56.3906C90.8398 56.3906 93.0794 57.2891 94.8633 59.0859C96.6602 60.8698 97.5586 63.1094 97.5586 65.8047L97.3438 67.7969ZM88.1445 59.8086C86.6992 59.8086 85.4818 60.2383 84.4922 61.0977C83.5156 61.944 82.8581 63.0443 82.5195 64.3984H93.6328C93.3984 63.0443 92.793 61.944 91.8164 61.0977C90.8398 60.2383 89.6159 59.8086 88.1445 59.8086ZM112.129 76.3906C111.413 76.3906 110.716 76.306 110.039 76.1367C109.362 75.9674 108.783 75.7591 108.301 75.5117C107.819 75.2513 107.389 74.9909 107.012 74.7305C106.647 74.457 106.38 74.2422 106.211 74.0859L105.938 73.793V84.3984H101.934V56.8008H105.938V59.0078C106.12 58.8255 106.374 58.5846 106.699 58.2852C107.038 57.9857 107.747 57.5951 108.828 57.1133C109.909 56.6315 111.009 56.3906 112.129 56.3906C114.668 56.3906 116.868 57.3672 118.73 59.3203C120.605 61.2604 121.543 63.6172 121.543 66.3906C121.543 69.1641 120.605 71.5273 118.73 73.4805C116.868 75.4206 114.668 76.3906 112.129 76.3906ZM115.781 61.8789C114.609 60.6289 113.262 60.0039 111.738 60.0039C110.215 60.0039 108.867 60.6289 107.695 61.8789C106.523 63.1289 105.938 64.6393 105.938 66.4102C105.938 68.168 106.523 69.6719 107.695 70.9219C108.867 72.1719 110.215 72.7969 111.738 72.7969C113.262 72.7969 114.609 72.1719 115.781 70.9219C116.953 69.6719 117.539 68.168 117.539 66.4102C117.539 64.6393 116.953 63.1289 115.781 61.8789ZM138.945 70.9414C140.13 69.7044 140.723 68.194 140.723 66.4102C140.723 64.6133 140.13 63.0964 138.945 61.8594C137.76 60.6224 136.354 60.0039 134.727 60.0039C133.099 60.0039 131.686 60.6224 130.488 61.8594C129.303 63.0964 128.711 64.6133 128.711 66.4102C128.711 68.194 129.303 69.7044 130.488 70.9414C131.686 72.1784 133.099 72.7969 134.727 72.7969C136.354 72.7969 137.76 72.1784 138.945 70.9414ZM127.695 73.4219C125.716 71.4297 124.727 69.0924 124.727 66.4102C124.727 63.7148 125.716 61.3711 127.695 59.3789C129.688 57.3867 132.031 56.3906 134.727 56.3906C137.422 56.3906 139.759 57.3867 141.738 59.3789C143.73 61.3711 144.727 63.7148 144.727 66.4102C144.727 69.0924 143.73 71.4297 141.738 73.4219C139.759 75.401 137.422 76.3906 134.727 76.3906C132.031 76.3906 129.688 75.401 127.695 73.4219ZM153.125 60.3945V76H149.121V56.8008H166.523V76H162.52V60.3945H153.125ZM182.324 76.3906C181.608 76.3906 180.911 76.306 180.234 76.1367C179.557 75.9674 178.978 75.7591 178.496 75.5117C178.014 75.2513 177.585 74.9909 177.207 74.7305C176.842 74.457 176.576 74.2422 176.406 74.0859L176.133 73.793V84.3984H172.129V56.8008H176.133V59.0078C176.315 58.8255 176.569 58.5846 176.895 58.2852C177.233 57.9857 177.943 57.5951 179.023 57.1133C180.104 56.6315 181.204 56.3906 182.324 56.3906C184.863 56.3906 187.064 57.3672 188.926 59.3203C190.801 61.2604 191.738 63.6172 191.738 66.3906C191.738 69.1641 190.801 71.5273 188.926 73.4805C187.064 75.4206 184.863 76.3906 182.324 76.3906ZM185.977 61.8789C184.805 60.6289 183.457 60.0039 181.934 60.0039C180.41 60.0039 179.062 60.6289 177.891 61.8789C176.719 63.1289 176.133 64.6393 176.133 66.4102C176.133 68.168 176.719 69.6719 177.891 70.9219C179.062 72.1719 180.41 72.7969 181.934 72.7969C183.457 72.7969 184.805 72.1719 185.977 70.9219C187.148 69.6719 187.734 68.168 187.734 66.4102C187.734 64.6393 187.148 63.1289 185.977 61.8789ZM210.117 56.8008H213.711V76H209.707V63.4023L199.707 76H196.113V56.8008H200.117V69.3984L210.117 56.8008ZM225.723 56.8008H234.512V76H230.527V70.0039H226.328L222.52 76H218.125L222.324 69.3984C222.22 69.3724 222.077 69.3138 221.895 69.2227C221.725 69.1315 221.426 68.9297 220.996 68.6172C220.566 68.2917 220.182 67.9206 219.844 67.5039C219.518 67.0872 219.212 66.5143 218.926 65.7852C218.652 65.043 218.516 64.2487 218.516 63.4023C218.516 61.4883 219.173 59.9128 220.488 58.6758C221.816 57.4258 223.561 56.8008 225.723 56.8008ZM230.527 60.1992H225.723C224.811 60.1992 224.049 60.5052 223.438 61.1172C222.826 61.7292 222.52 62.4909 222.52 63.4023C222.52 64.3138 222.826 65.0755 223.438 65.6875C224.049 66.2995 224.811 66.6055 225.723 66.6055H230.527V60.1992ZM238.105 60.3945V56.8008H255.293V60.3945H248.691V76H244.707V60.3945H238.105ZM272.891 56.8008H276.484V76H272.48V63.4023L262.48 76H258.887V56.8008H262.891V69.3984L272.891 56.8008ZM288.496 56.8008H297.285V76H293.301V70.0039H289.102L285.293 76H280.898L285.098 69.3984C284.993 69.3724 284.85 69.3138 284.668 69.2227C284.499 69.1315 284.199 68.9297 283.77 68.6172C283.34 68.2917 282.956 67.9206 282.617 67.5039C282.292 67.0872 281.986 66.5143 281.699 65.7852C281.426 65.043 281.289 64.2487 281.289 63.4023C281.289 61.4883 281.947 59.9128 283.262 58.6758C284.59 57.4258 286.335 56.8008 288.496 56.8008ZM293.301 60.1992H288.496C287.585 60.1992 286.823 60.5052 286.211 61.1172C285.599 61.7292 285.293 62.4909 285.293 63.4023C285.293 64.3138 285.599 65.0755 286.211 65.6875C286.823 66.2995 287.585 66.6055 288.496 66.6055H293.301V60.1992Z" fill="url(#paint0_linear_11_70)"/>
<defs>
<linearGradient id="paint0_linear_11_70" x1="160" y1="-9" x2="160" y2="85" gradientUnits="userSpaceOnUse">
<stop stop-color="white"/>
<stop offset="1" stop-color="white" stop-opacity="0.6"/>
</linearGradient>
</defs>
</svg>
