<svg width="29" height="29" viewBox="0 0 29 29" fill="none" xmlns="http://www.w3.org/2000/svg">
<circle cx="8.05542" cy="20.4092" r="8" fill="white"/>
<path d="M8.05542 5.06656C8.09664 8.44683 10.8173 12.4867 13.2495 15.0837C16.7946 18.835 21.2467 20.8137 23.7201 21.1022C24.5445 21.1847 25.369 21.1022 25.9873 20.4839C26.6469 19.8655 27.2652 19.2472 27.8836 18.5876C28.3782 18.0517 28.3782 17.5158 27.8423 17.0212C26.853 16.0318 25.8637 15.0837 24.8743 14.0943C24.4621 13.7233 23.9674 13.6821 23.514 14.0531C23.3078 14.218 23.0193 14.5066 21.5765 15.9081C21.2055 16.2379 20.8345 16.3204 20.381 16.1143C17.0008 14.4241 14.1976 11.25 13.167 9.06517C12.8785 8.4056 12.9197 8.11704 13.4556 7.62237C14.0327 7.08647 14.6098 6.55058 15.1457 5.97346C15.5992 5.47879 15.5992 4.98411 15.1457 4.48944C14.6098 3.91232 12.5899 1.89241 12.1365 1.5214C11.683 1.1504 11.1883 1.10917 10.7349 1.48018C10.4463 1.72752 9.99289 2.22219 8.96232 3.21153C8.34398 3.74743 8.05542 4.44822 8.05542 5.06656Z" stroke="#353535" stroke-width="1.5" stroke-miterlimit="10"/>
</svg>
