<svg width="309" height="44" viewBox="0 0 309 44" fill="none" xmlns="http://www.w3.org/2000/svg">
<path d="M33.5957 8.99707C36.5254 11.6989 37.9902 15.0355 37.9902 19.0068C37.9902 22.9619 36.5254 26.2904 33.5957 28.9922C30.666 31.694 26.8005 33.11 21.999 33.2402V38.001H16.5059V33.2402C11.7044 33.11 7.83073 31.694 4.88477 28.9922C1.95508 26.2904 0.490234 22.9619 0.490234 19.0068C0.490234 15.0355 1.95508 11.6989 4.88477 8.99707C7.83073 6.29525 11.7044 4.87923 16.5059 4.74902V0.989258H21.999V4.74902C26.8005 4.87923 30.666 6.29525 33.5957 8.99707ZM29.7383 25.7695C31.5775 24.0605 32.4971 21.8063 32.4971 19.0068C32.4971 16.2074 31.5775 13.9613 29.7383 12.2686C27.9154 10.5596 25.3356 9.63997 21.999 9.50977V28.5039C25.3356 28.3737 27.9154 27.4622 29.7383 25.7695ZM8.74219 12.2686C6.91927 13.9613 6.00781 16.2074 6.00781 19.0068C6.00781 21.8063 6.91927 24.0605 8.74219 25.7695C10.5814 27.4622 13.1693 28.3737 16.5059 28.5039V9.50977C13.1693 9.63997 10.5814 10.5596 8.74219 12.2686ZM60.0117 30.6768C61.4928 29.1305 62.2334 27.2425 62.2334 25.0127C62.2334 22.7666 61.4928 20.8704 60.0117 19.3242C58.5306 17.778 56.7728 17.0049 54.7383 17.0049C52.7038 17.0049 50.9378 17.778 49.4404 19.3242C47.9593 20.8704 47.2188 22.7666 47.2188 25.0127C47.2188 27.2425 47.9593 29.1305 49.4404 30.6768C50.9378 32.223 52.7038 32.9961 54.7383 32.9961C56.7728 32.9961 58.5306 32.223 60.0117 30.6768ZM45.9492 33.7773C43.4753 31.2871 42.2383 28.3656 42.2383 25.0127C42.2383 21.6436 43.4753 18.7139 45.9492 16.2236C48.4395 13.7334 51.3691 12.4883 54.7383 12.4883C58.1074 12.4883 61.029 13.7334 63.5029 16.2236C65.9932 18.7139 67.2383 21.6436 67.2383 25.0127C67.2383 28.3656 65.9932 31.2871 63.5029 33.7773C61.029 36.2513 58.1074 37.4883 54.7383 37.4883C51.3691 37.4883 48.4395 36.2513 45.9492 33.7773ZM70.2412 17.4932V13.001H91.7256V17.4932H83.4736V37H78.4932V17.4932H70.2412ZM112.502 30.6768C113.983 29.1305 114.724 27.2425 114.724 25.0127C114.724 22.7666 113.983 20.8704 112.502 19.3242C111.021 17.778 109.263 17.0049 107.229 17.0049C105.194 17.0049 103.428 17.778 101.931 19.3242C100.45 20.8704 99.709 22.7666 99.709 25.0127C99.709 27.2425 100.45 29.1305 101.931 30.6768C103.428 32.223 105.194 32.9961 107.229 32.9961C109.263 32.9961 111.021 32.223 112.502 30.6768ZM98.4395 33.7773C95.9655 31.2871 94.7285 28.3656 94.7285 25.0127C94.7285 21.6436 95.9655 18.7139 98.4395 16.2236C100.93 13.7334 103.859 12.4883 107.229 12.4883C110.598 12.4883 113.519 13.7334 115.993 16.2236C118.483 18.7139 119.729 21.6436 119.729 25.0127C119.729 28.3656 118.483 31.2871 115.993 33.7773C113.519 36.2513 110.598 37.4883 107.229 37.4883C103.859 37.4883 100.93 36.2513 98.4395 33.7773ZM152.736 13.001H157.229V37H152.224V21.2529L139.724 37H135.231V13.001H140.236V28.748L152.736 13.001ZM174.245 13.001H185.744C188.039 13.001 189.862 13.5951 191.213 14.7832C192.564 15.9551 193.239 17.4443 193.239 19.251C193.239 20.2764 193.011 21.2122 192.556 22.0586C192.116 22.8887 191.66 23.4665 191.188 23.792L190.505 24.2559C190.603 24.2884 190.741 24.3454 190.92 24.4268C191.099 24.5081 191.424 24.7197 191.896 25.0615C192.368 25.387 192.775 25.7533 193.117 26.1602C193.475 26.5508 193.793 27.0879 194.069 27.7715C194.362 28.4551 194.509 29.1956 194.509 29.9932C194.509 32.0602 193.768 33.7448 192.287 35.0469C190.822 36.349 188.812 37 186.257 37H174.245V13.001ZM186.257 26.2578H179.25V32.752H186.257C187.25 32.752 188.039 32.459 188.625 31.873C189.211 31.2871 189.504 30.4977 189.504 29.5049C189.504 28.6097 189.203 27.8447 188.601 27.21C187.998 26.5752 187.217 26.2578 186.257 26.2578ZM187.575 21.5947C188.031 21.139 188.259 20.5286 188.259 19.7637C188.259 18.9824 188.031 18.3721 187.575 17.9326C187.119 17.4769 186.509 17.249 185.744 17.249H179.25V22.2539H185.744C186.509 22.2539 187.119 22.0342 187.575 21.5947ZM217.482 13.001H221.975V37H216.97V21.2529L204.47 37H199.978V13.001H204.982V28.748L217.482 13.001ZM225.49 32.5078H227.224C227.321 32.4102 227.46 32.2555 227.639 32.0439C227.834 31.8161 228.16 31.3197 228.615 30.5547C229.087 29.7897 229.494 28.9678 229.836 28.0889C230.194 27.1937 230.511 26.0218 230.788 24.5732C231.081 23.1247 231.228 21.6029 231.228 20.0078V13.001H248.732V32.5078H252.224V43.0059H247.243V37H230.495V43.0059H225.49V32.5078ZM236.232 17.4932V20.0078C236.232 21.6029 236.094 23.1165 235.817 24.5488C235.557 25.9811 235.223 27.1693 234.816 28.1133C234.426 29.041 234.027 29.8467 233.62 30.5303C233.229 31.2139 232.904 31.7021 232.644 31.9951L232.229 32.5078H243.728V17.4932H236.232ZM279.494 26.7461H260.744C261.005 28.4388 261.835 29.9036 263.234 31.1406C264.65 32.3776 266.327 32.9961 268.264 32.9961C269.663 32.9961 270.965 32.6787 272.17 32.0439C273.391 31.4092 274.253 30.7907 274.758 30.1885L275.515 29.2607L278.762 32.5078C278.664 32.638 278.509 32.8252 278.298 33.0693C278.103 33.2972 277.671 33.696 277.004 34.2656C276.337 34.819 275.629 35.3154 274.88 35.7549C274.131 36.1781 273.155 36.5768 271.95 36.9512C270.762 37.3092 269.533 37.4883 268.264 37.4883C264.862 37.4883 261.924 36.2432 259.45 33.7529C256.993 31.2464 255.764 28.2435 255.764 24.7441C255.764 21.375 256.96 18.4941 259.353 16.1016C261.761 13.6927 264.642 12.4883 267.995 12.4883C271.364 12.4883 274.164 13.6113 276.394 15.8574C278.64 18.0872 279.763 20.8867 279.763 24.2559L279.494 26.7461ZM267.995 16.7607C266.188 16.7607 264.667 17.2979 263.43 18.3721C262.209 19.43 261.387 20.8053 260.964 22.498H274.855C274.562 20.8053 273.806 19.43 272.585 18.3721C271.364 17.2979 269.834 16.7607 267.995 16.7607ZM301.516 30.6768C302.997 29.1305 303.737 27.2425 303.737 25.0127C303.737 22.7666 302.997 20.8704 301.516 19.3242C300.035 17.778 298.277 17.0049 296.242 17.0049C294.208 17.0049 292.442 17.778 290.944 19.3242C289.463 20.8704 288.723 22.7666 288.723 25.0127C288.723 27.2425 289.463 29.1305 290.944 30.6768C292.442 32.223 294.208 32.9961 296.242 32.9961C298.277 32.9961 300.035 32.223 301.516 30.6768ZM287.453 33.7773C284.979 31.2871 283.742 28.3656 283.742 25.0127C283.742 21.6436 284.979 18.7139 287.453 16.2236C289.943 13.7334 292.873 12.4883 296.242 12.4883C299.611 12.4883 302.533 13.7334 305.007 16.2236C307.497 18.7139 308.742 21.6436 308.742 25.0127C308.742 28.3656 307.497 31.2871 305.007 33.7773C302.533 36.2513 299.611 37.4883 296.242 37.4883C292.873 37.4883 289.943 36.2513 287.453 33.7773Z" fill="url(#paint0_linear_73_15)"/>
<defs>
<linearGradient id="paint0_linear_73_15" x1="177" y1="-11" x2="177" y2="48" gradientUnits="userSpaceOnUse">
<stop stop-color="white"/>
<stop offset="1" stop-color="white" stop-opacity="0.5"/>
</linearGradient>
</defs>
</svg>
