<svg width="912" height="56" viewBox="0 0 912 56" fill="none" xmlns="http://www.w3.org/2000/svg">
<path d="M33.9023 0.988281V43H27.3105V24.6895H6.59766V43H0.00585938V0.988281H6.59766V18.7129H27.3105V0.988281H33.9023ZM66.8906 43H60.8848V40.0117C60.8066 40.0898 60.6699 40.2168 60.4746 40.3926C60.2988 40.5684 59.9277 40.8613 59.3613 41.2715C58.8145 41.6621 58.2188 42.0234 57.5742 42.3555C56.9297 42.668 56.1191 42.9512 55.1426 43.2051C54.166 43.459 53.1797 43.5859 52.1836 43.5859C49.2539 43.5859 46.8223 42.7363 44.8887 41.0371C42.9551 39.3379 41.9883 37.3945 41.9883 35.207C41.9883 32.8438 42.7305 30.8613 44.2148 29.2598C45.7188 27.6582 47.7695 26.6426 50.3672 26.2129L60.8848 24.3965C60.8848 22.873 60.3184 21.5938 59.1855 20.5586C58.0723 19.5234 56.6367 19.0059 54.8789 19.0059C53.3555 19.0059 51.9688 19.3281 50.7188 19.9727C49.4883 20.5977 48.6387 21.2324 48.1699 21.877L47.3789 22.9023L43.4824 19.0059C43.5996 18.8496 43.7559 18.6543 43.9512 18.4199C44.166 18.166 44.625 17.7363 45.3281 17.1309C46.0508 16.5059 46.8125 15.9492 47.6133 15.4609C48.4141 14.9727 49.4688 14.543 50.7773 14.1719C52.1055 13.7812 53.4727 13.5859 54.8789 13.5859C58.3945 13.5859 61.2754 14.6309 63.5215 16.7207C65.7676 18.791 66.8906 21.3496 66.8906 24.3965V43ZM53.0918 38.1953C55.5332 38.1953 57.4375 37.4727 58.8047 36.0273C60.1914 34.5625 60.8848 32.4824 60.8848 29.7871V29.2012L51.5684 30.6953C50.4941 30.8906 49.625 31.3301 48.9609 32.0137C48.2969 32.6973 47.9648 33.5566 47.9648 34.5918C47.9648 35.5488 48.4238 36.3887 49.3418 37.1113C50.2793 37.834 51.5293 38.1953 53.0918 38.1953ZM75.2988 43V14.2012H81.3047V37.6094H91.793V14.2012H97.7988V37.6094H108.316V14.2012H114.293V43H75.2988ZM143.707 14.2012H149.098V43H143.092V24.1035L128.092 43H122.701V14.2012H128.707V33.0977L143.707 14.2012ZM175.523 19.5918V43H169.518V14.2012H195.621V43H189.615V19.5918H175.523ZM219.322 43.5859C218.248 43.5859 217.203 43.459 216.188 43.2051C215.172 42.9512 214.303 42.6387 213.58 42.2676C212.857 41.877 212.213 41.4863 211.646 41.0957C211.1 40.6855 210.699 40.3633 210.445 40.1289L210.035 39.6895V55.5977H204.029V14.2012H210.035V17.5117C210.309 17.2383 210.689 16.877 211.178 16.4277C211.686 15.9785 212.75 15.3926 214.371 14.6699C215.992 13.9473 217.643 13.5859 219.322 13.5859C223.131 13.5859 226.432 15.0508 229.225 17.9805C232.037 20.8906 233.443 24.4258 233.443 28.5859C233.443 32.7461 232.037 36.291 229.225 39.2207C226.432 42.1309 223.131 43.5859 219.322 43.5859ZM224.801 21.8184C223.043 19.9434 221.021 19.0059 218.736 19.0059C216.451 19.0059 214.43 19.9434 212.672 21.8184C210.914 23.6934 210.035 25.959 210.035 28.6152C210.035 31.252 210.914 33.5078 212.672 35.3828C214.43 37.2578 216.451 38.1953 218.736 38.1953C221.021 38.1953 223.043 37.2578 224.801 35.3828C226.559 33.5078 227.438 31.252 227.438 28.6152C227.438 25.959 226.559 23.6934 224.801 21.8184ZM259.547 35.4121C261.324 33.5566 262.213 31.291 262.213 28.6152C262.213 25.9199 261.324 23.6445 259.547 21.7891C257.77 19.9336 255.66 19.0059 253.219 19.0059C250.777 19.0059 248.658 19.9336 246.861 21.7891C245.084 23.6445 244.195 25.9199 244.195 28.6152C244.195 31.291 245.084 33.5566 246.861 35.4121C248.658 37.2676 250.777 38.1953 253.219 38.1953C255.66 38.1953 257.77 37.2676 259.547 35.4121ZM242.672 39.1328C239.703 36.1445 238.219 32.6387 238.219 28.6152C238.219 24.5723 239.703 21.0566 242.672 18.0684C245.66 15.0801 249.176 13.5859 253.219 13.5859C257.262 13.5859 260.768 15.0801 263.736 18.0684C266.725 21.0566 268.219 24.5723 268.219 28.6152C268.219 32.6387 266.725 36.1445 263.736 39.1328C260.768 42.1016 257.262 43.5859 253.219 43.5859C249.176 43.5859 245.66 42.1016 242.672 39.1328ZM294.908 14.2012V19.5918H280.816V43H274.811V14.2012H294.908ZM315.006 43.5859C313.932 43.5859 312.887 43.459 311.871 43.2051C310.855 42.9512 309.986 42.6387 309.264 42.2676C308.541 41.877 307.896 41.4863 307.33 41.0957C306.783 40.6855 306.383 40.3633 306.129 40.1289L305.719 39.6895V55.5977H299.713V14.2012H305.719V17.5117C305.992 17.2383 306.373 16.877 306.861 16.4277C307.369 15.9785 308.434 15.3926 310.055 14.6699C311.676 13.9473 313.326 13.5859 315.006 13.5859C318.814 13.5859 322.115 15.0508 324.908 17.9805C327.721 20.8906 329.127 24.4258 329.127 28.5859C329.127 32.7461 327.721 36.291 324.908 39.2207C322.115 42.1309 318.814 43.5859 315.006 43.5859ZM320.484 21.8184C318.727 19.9434 316.705 19.0059 314.42 19.0059C312.135 19.0059 310.113 19.9434 308.355 21.8184C306.598 23.6934 305.719 25.959 305.719 28.6152C305.719 31.252 306.598 33.5078 308.355 35.3828C310.113 37.2578 312.135 38.1953 314.42 38.1953C316.705 38.1953 318.727 37.2578 320.484 35.3828C322.242 33.5078 323.121 31.252 323.121 28.6152C323.121 25.959 322.242 23.6934 320.484 21.8184ZM358.805 43H352.799V40.0117C352.721 40.0898 352.584 40.2168 352.389 40.3926C352.213 40.5684 351.842 40.8613 351.275 41.2715C350.729 41.6621 350.133 42.0234 349.488 42.3555C348.844 42.668 348.033 42.9512 347.057 43.2051C346.08 43.459 345.094 43.5859 344.098 43.5859C341.168 43.5859 338.736 42.7363 336.803 41.0371C334.869 39.3379 333.902 37.3945 333.902 35.207C333.902 32.8438 334.645 30.8613 336.129 29.2598C337.633 27.6582 339.684 26.6426 342.281 26.2129L352.799 24.3965C352.799 22.873 352.232 21.5938 351.1 20.5586C349.986 19.5234 348.551 19.0059 346.793 19.0059C345.27 19.0059 343.883 19.3281 342.633 19.9727C341.402 20.5977 340.553 21.2324 340.084 21.877L339.293 22.9023L335.396 19.0059C335.514 18.8496 335.67 18.6543 335.865 18.4199C336.08 18.166 336.539 17.7363 337.242 17.1309C337.965 16.5059 338.727 15.9492 339.527 15.4609C340.328 14.9727 341.383 14.543 342.691 14.1719C344.02 13.7812 345.387 13.5859 346.793 13.5859C350.309 13.5859 353.189 14.6309 355.436 16.7207C357.682 18.791 358.805 21.3496 358.805 24.3965V43ZM345.006 38.1953C347.447 38.1953 349.352 37.4727 350.719 36.0273C352.105 34.5625 352.799 32.4824 352.799 29.7871V29.2012L343.482 30.6953C342.408 30.8906 341.539 31.3301 340.875 32.0137C340.211 32.6973 339.879 33.5566 339.879 34.5918C339.879 35.5488 340.338 36.3887 341.256 37.1113C342.193 37.834 343.443 38.1953 345.006 38.1953ZM382.506 26.7988L393.023 14.2012H397.828V43H391.822V24.1035L382.506 35.207L373.219 24.1035V43H367.213V14.2012H372.018L382.506 26.7988ZM421.529 26.7988L432.047 14.2012H436.852V43H430.846V24.1035L421.529 35.207L412.242 24.1035V43H406.236V14.2012H411.041L421.529 26.7988ZM451.266 37.9023H457.564C458.932 37.9023 460.074 37.4434 460.992 36.5254C461.91 35.6074 462.369 34.4648 462.369 33.0977C462.369 31.7305 461.91 30.5879 460.992 29.6699C460.074 28.752 458.932 28.293 457.564 28.293H451.266V37.9023ZM465.387 26.0078C467.379 27.8633 468.375 30.2363 468.375 33.127C468.375 35.998 467.379 38.3613 465.387 40.2168C463.414 42.0723 460.807 43 457.564 43H445.26V14.2012H451.266V23.1953H457.564C460.807 23.1953 463.414 24.1328 465.387 26.0078ZM478.57 14.2012V43H472.564V14.2012H478.57ZM519.996 14.2012H525.387V43H519.381V24.1035L504.381 43H498.99V14.2012H504.996V33.0977L519.996 14.2012ZM561.1 26.7988L571.617 14.2012H576.422V43H570.416V24.1035L561.1 35.207L551.812 24.1035V43H545.807V14.2012H550.611L561.1 26.7988ZM611.52 30.6953H589.02C589.332 32.7266 590.328 34.4844 592.008 35.9688C593.707 37.4531 595.719 38.1953 598.043 38.1953C599.723 38.1953 601.285 37.8145 602.73 37.0527C604.195 36.291 605.23 35.5488 605.836 34.8262L606.744 33.7129L610.641 37.6094C610.523 37.7656 610.338 37.9902 610.084 38.2832C609.85 38.5566 609.332 39.0352 608.531 39.7188C607.73 40.3828 606.881 40.9785 605.982 41.5059C605.084 42.0137 603.912 42.4922 602.467 42.9414C601.041 43.3711 599.566 43.5859 598.043 43.5859C593.961 43.5859 590.436 42.0918 587.467 39.1035C584.518 36.0957 583.043 32.4922 583.043 28.293C583.043 24.25 584.479 20.793 587.35 17.9219C590.24 15.0312 593.697 13.5859 597.721 13.5859C601.764 13.5859 605.123 14.9336 607.799 17.6289C610.494 20.3047 611.842 23.6641 611.842 27.707L611.52 30.6953ZM597.721 18.7129C595.553 18.7129 593.727 19.3574 592.242 20.6465C590.777 21.916 589.791 23.5664 589.283 25.5977H605.953C605.602 23.5664 604.693 21.916 603.229 20.6465C601.764 19.3574 599.928 18.7129 597.721 18.7129ZM633.697 43.5859C632.623 43.5859 631.578 43.459 630.562 43.2051C629.547 42.9512 628.678 42.6387 627.955 42.2676C627.232 41.877 626.588 41.4863 626.021 41.0957C625.475 40.6855 625.074 40.3633 624.82 40.1289L624.41 39.6895V55.5977H618.404V14.2012H624.41V17.5117C624.684 17.2383 625.064 16.877 625.553 16.4277C626.061 15.9785 627.125 15.3926 628.746 14.6699C630.367 13.9473 632.018 13.5859 633.697 13.5859C637.506 13.5859 640.807 15.0508 643.6 17.9805C646.412 20.8906 647.818 24.4258 647.818 28.5859C647.818 32.7461 646.412 36.291 643.6 39.2207C640.807 42.1309 637.506 43.5859 633.697 43.5859ZM639.176 21.8184C637.418 19.9434 635.396 19.0059 633.111 19.0059C630.826 19.0059 628.805 19.9434 627.047 21.8184C625.289 23.6934 624.41 25.959 624.41 28.6152C624.41 31.252 625.289 33.5078 627.047 35.3828C628.805 37.2578 630.826 38.1953 633.111 38.1953C635.396 38.1953 637.418 37.2578 639.176 35.3828C640.934 33.5078 641.812 31.252 641.812 28.6152C641.812 25.959 640.934 23.6934 639.176 21.8184ZM673.922 35.4121C675.699 33.5566 676.588 31.291 676.588 28.6152C676.588 25.9199 675.699 23.6445 673.922 21.7891C672.145 19.9336 670.035 19.0059 667.594 19.0059C665.152 19.0059 663.033 19.9336 661.236 21.7891C659.459 23.6445 658.57 25.9199 658.57 28.6152C658.57 31.291 659.459 33.5566 661.236 35.4121C663.033 37.2676 665.152 38.1953 667.594 38.1953C670.035 38.1953 672.145 37.2676 673.922 35.4121ZM657.047 39.1328C654.078 36.1445 652.594 32.6387 652.594 28.6152C652.594 24.5723 654.078 21.0566 657.047 18.0684C660.035 15.0801 663.551 13.5859 667.594 13.5859C671.637 13.5859 675.143 15.0801 678.111 18.0684C681.1 21.0566 682.594 24.5723 682.594 28.6152C682.594 32.6387 681.1 36.1445 678.111 39.1328C675.143 42.1016 671.637 43.5859 667.594 43.5859C663.551 43.5859 660.035 42.1016 657.047 39.1328ZM695.191 19.5918V43H689.186V14.2012H715.289V43H709.283V19.5918H695.191ZM738.99 43.5859C737.916 43.5859 736.871 43.459 735.855 43.2051C734.84 42.9512 733.971 42.6387 733.248 42.2676C732.525 41.877 731.881 41.4863 731.314 41.0957C730.768 40.6855 730.367 40.3633 730.113 40.1289L729.703 39.6895V55.5977H723.697V14.2012H729.703V17.5117C729.977 17.2383 730.357 16.877 730.846 16.4277C731.354 15.9785 732.418 15.3926 734.039 14.6699C735.66 13.9473 737.311 13.5859 738.99 13.5859C742.799 13.5859 746.1 15.0508 748.893 17.9805C751.705 20.8906 753.111 24.4258 753.111 28.5859C753.111 32.7461 751.705 36.291 748.893 39.2207C746.1 42.1309 742.799 43.5859 738.99 43.5859ZM744.469 21.8184C742.711 19.9434 740.689 19.0059 738.404 19.0059C736.119 19.0059 734.098 19.9434 732.34 21.8184C730.582 23.6934 729.703 25.959 729.703 28.6152C729.703 31.252 730.582 33.5078 732.34 35.3828C734.098 37.2578 736.119 38.1953 738.404 38.1953C740.689 38.1953 742.711 37.2578 744.469 35.3828C746.227 33.5078 747.105 31.252 747.105 28.6152C747.105 25.959 746.227 23.6934 744.469 21.8184ZM780.68 14.2012H786.07V43H780.064V24.1035L765.064 43H759.674V14.2012H765.68V33.0977L780.68 14.2012ZM804.088 14.2012H817.271V43H811.295V34.0059H804.996L799.283 43H792.691L798.99 33.0977C798.834 33.0586 798.619 32.9707 798.346 32.834C798.092 32.6973 797.643 32.3945 796.998 31.9258C796.354 31.4375 795.777 30.8809 795.27 30.2559C794.781 29.6309 794.322 28.7715 793.893 27.6777C793.482 26.5645 793.277 25.373 793.277 24.1035C793.277 21.2324 794.264 18.8691 796.236 17.0137C798.229 15.1387 800.846 14.2012 804.088 14.2012ZM811.295 19.2988H804.088C802.721 19.2988 801.578 19.7578 800.66 20.6758C799.742 21.5938 799.283 22.7363 799.283 24.1035C799.283 25.4707 799.742 26.6133 800.66 27.5312C801.578 28.4492 802.721 28.9082 804.088 28.9082H811.295V19.2988ZM822.662 19.5918V14.2012H848.443V19.5918H838.541V43H832.564V19.5918H822.662ZM874.84 14.2012H880.23V43H874.225V24.1035L859.225 43H853.834V14.2012H859.84V33.0977L874.84 14.2012ZM898.248 14.2012H911.432V43H905.455V34.0059H899.156L893.443 43H886.852L893.15 33.0977C892.994 33.0586 892.779 32.9707 892.506 32.834C892.252 32.6973 891.803 32.3945 891.158 31.9258C890.514 31.4375 889.938 30.8809 889.43 30.2559C888.941 29.6309 888.482 28.7715 888.053 27.6777C887.643 26.5645 887.438 25.373 887.438 24.1035C887.438 21.2324 888.424 18.8691 890.396 17.0137C892.389 15.1387 895.006 14.2012 898.248 14.2012ZM905.455 19.2988H898.248C896.881 19.2988 895.738 19.7578 894.82 20.6758C893.902 21.5938 893.443 22.7363 893.443 24.1035C893.443 25.4707 893.902 26.6133 894.82 27.5312C895.738 28.4492 896.881 28.9082 898.248 28.9082H905.455V19.2988Z" fill="url(#paint0_linear_38_9)"/>
<defs>
<linearGradient id="paint0_linear_38_9" x1="459.5" y1="-15" x2="459.5" y2="56" gradientUnits="userSpaceOnUse">
<stop stop-color="white"/>
<stop offset="1" stop-color="white" stop-opacity="0.6"/>
</linearGradient>
</defs>
</svg>
