<svg width="22" height="16" viewBox="0 0 22 16" fill="none" xmlns="http://www.w3.org/2000/svg">
<path d="M13.5354 16C13.4241 16.0006 13.3137 15.9804 13.2107 15.9406C13.1076 15.9008 13.0139 15.8422 12.9348 15.768C12.8555 15.6937 12.7926 15.6052 12.7496 15.5077C12.7067 15.4103 12.6846 15.3057 12.6846 15.2002C12.6846 15.0946 12.7067 14.99 12.7496 14.8926C12.7926 14.7951 12.8555 14.7066 12.9348 14.6323L19.9563 8.00163L12.9348 1.37099C12.7755 1.22038 12.686 1.01611 12.686 0.803108C12.686 0.590111 12.7755 0.385837 12.9348 0.235225C13.0941 0.084613 13.3102 0 13.5354 0C13.7607 0 13.9768 0.084613 14.1361 0.235225L21.7498 7.43375C21.8291 7.5081 21.892 7.59656 21.9349 7.69403C21.9779 7.7915 22 7.89604 22 8.00163C22 8.10722 21.9779 8.21176 21.9349 8.30923C21.892 8.40669 21.8291 8.49516 21.7498 8.56951L14.1361 15.768C14.057 15.8422 13.9633 15.9008 13.8602 15.9406C13.7571 15.9804 13.6468 16.0006 13.5354 16Z" fill="white"/>
<path d="M21.1491 8.80147H0.845965C0.621601 8.80147 0.406427 8.7172 0.247777 8.5672C0.0891282 8.4172 0 8.21376 0 8.00163C0 7.7895 0.0891282 7.58606 0.247777 7.43606C0.406427 7.28606 0.621601 7.20179 0.845965 7.20179H21.1491C21.3735 7.20179 21.5887 7.28606 21.7473 7.43606C21.906 7.58606 21.9951 7.7895 21.9951 8.00163C21.9951 8.21376 21.906 8.4172 21.7473 8.5672C21.5887 8.7172 21.3735 8.80147 21.1491 8.80147Z" fill="white"/>
</svg>
