<svg width="28" height="29" viewBox="0 0 28 29" fill="none" xmlns="http://www.w3.org/2000/svg">
<circle cx="8.01953" cy="20.4092" r="8" fill="white"/>
<path d="M21.751 13.472C21.4823 13.3359 20.1589 12.6861 19.9106 12.5943C19.6622 12.5058 19.4853 12.4582 19.305 12.7304C19.1247 12.9991 18.611 13.6081 18.4511 13.785C18.2946 13.9653 18.1382 13.9857 17.866 13.853C17.5972 13.7169 16.7298 13.4346 15.699 12.516C14.8995 11.8016 14.3586 10.9205 14.2021 10.6518C14.0456 10.383 14.2021 10.2504 14.3212 10.1007C14.6137 9.74007 14.9063 9.35905 14.9948 9.17875C15.0832 8.99844 15.039 8.84195 14.971 8.70588C14.9029 8.5698 14.3654 7.24644 14.1409 6.70554C13.9232 6.18164 13.6986 6.25308 13.5353 6.24287C13.3788 6.23607 13.1985 6.23267 13.0182 6.23267C12.8379 6.23267 12.5454 6.3007 12.3004 6.56946C12.0521 6.83821 11.3581 7.49138 11.3581 8.81474C11.3581 10.1381 12.3242 11.4206 12.4569 11.6009C12.593 11.7812 14.3552 14.4994 17.0563 15.6662C17.6993 15.9452 18.1994 16.1085 18.5906 16.2344C19.237 16.4385 19.8221 16.4113 20.2882 16.3398C20.8053 16.2616 21.8803 15.6867 22.1048 15.0607C22.3293 14.4313 22.3293 13.8938 22.2613 13.7816C22.2001 13.6761 22.0198 13.6081 21.751 13.472Z" fill="#353535"/>
<path d="M16.8318 21.2217C15.1649 21.2217 13.515 20.7998 12.0555 20.0038L11.7834 19.8541L7.08189 21.089L8.3406 16.4964L8.17731 16.214C7.30301 14.7002 6.84375 12.972 6.84375 11.2166C6.84375 5.70543 11.3275 1.22168 16.8352 1.22168C19.5092 1.22168 22.0198 2.26267 23.9045 4.15415C25.7925 6.04223 26.8301 8.55626 26.8301 11.2268C26.8301 16.7345 22.3464 21.2217 16.8386 21.2217H16.8318Z" stroke="#353535" stroke-width="1.5" stroke-miterlimit="10"/>
</svg>
