<svg width="823" height="175" viewBox="0 0 823 175" fill="none" xmlns="http://www.w3.org/2000/svg">
<path d="M46.4844 8.60156C52.0312 14.2005 54.8047 20.9974 54.8047 28.9922C54.8047 36.987 52.0312 43.7839 46.4844 49.3828C40.9375 54.9818 34.2448 57.7812 26.4062 57.7812C23.5677 57.7812 20.8333 57.3776 18.2031 56.5703C15.5729 55.737 13.3854 54.7344 11.6406 53.5625C9.89583 52.3906 8.35938 51.2188 7.03125 50.0469C5.70312 48.875 4.73958 47.8854 4.14062 47.0781L3.20312 45.7891L6.01562 43.4062C6.17188 43.6667 6.43229 44.0443 6.79688 44.5391C7.16146 45.0078 7.98177 45.8411 9.25781 47.0391C10.5599 48.237 11.9271 49.2917 13.3594 50.2031C14.7917 51.1146 16.6797 51.9479 19.0234 52.7031C21.3932 53.4323 23.8542 53.7969 26.4062 53.7969C32.9688 53.7969 38.5677 51.5443 43.2031 47.0391C47.8385 42.5339 50.3646 37.0521 50.7812 30.5938H20V26.6094H50.7812C50.1823 20.3073 47.5911 14.9948 43.0078 10.6719C38.4505 6.34896 32.9167 4.1875 26.4062 4.1875C23.9062 4.1875 21.4844 4.55208 19.1406 5.28125C16.8229 6.01042 14.9349 6.88281 13.4766 7.89844C12.0182 8.88802 10.7292 9.89062 9.60938 10.9062C8.48958 11.9219 7.68229 12.7812 7.1875 13.4844L6.40625 14.6172L3.59375 12.1953C3.80208 11.8828 4.10156 11.4661 4.49219 10.9453C4.90885 10.3984 5.82031 9.4349 7.22656 8.05469C8.65885 6.64844 10.1823 5.41146 11.7969 4.34375C13.4375 3.27604 15.5729 2.32552 18.2031 1.49219C20.8333 0.632812 23.5677 0.203125 26.4062 0.203125C34.2448 0.203125 40.9375 3.0026 46.4844 8.60156ZM78.8219 35.3984L109.994 0.984375H115.228L94.0172 24.1875L117.22 57H112.416L91.5953 27L78.8219 40.9844V57H74.7984V0.984375H78.8219V35.3984ZM172.136 46.6484C176.876 41.8568 179.245 35.9714 179.245 28.9922C179.245 22.013 176.876 16.1406 172.136 11.375C167.422 6.58333 161.654 4.1875 154.831 4.1875C148.008 4.1875 142.227 6.58333 137.488 11.375C132.774 16.1406 130.417 22.013 130.417 28.9922C130.417 35.9714 132.774 41.8568 137.488 46.6484C142.227 51.4141 148.008 53.7969 154.831 53.7969C161.654 53.7969 167.422 51.4141 172.136 46.6484ZM174.948 8.60156C180.469 14.2005 183.23 20.9974 183.23 28.9922C183.23 36.987 180.469 43.7839 174.948 49.3828C169.428 54.9818 162.722 57.7812 154.831 57.7812C146.993 57.7812 140.3 54.9818 134.753 49.3828C129.206 43.7839 126.433 36.987 126.433 28.9922C126.433 20.9974 129.206 14.2005 134.753 8.60156C140.3 3.0026 146.993 0.203125 154.831 0.203125C162.722 0.203125 169.428 3.0026 174.948 8.60156ZM224.434 31.4141V35.0078H198.028V31.4141H224.434ZM284.936 46.6484C289.676 41.8568 292.045 35.9714 292.045 28.9922C292.045 22.013 289.676 16.1406 284.936 11.375C280.222 6.58333 274.454 4.1875 267.631 4.1875C260.808 4.1875 255.027 6.58333 250.288 11.375C245.574 16.1406 243.217 22.013 243.217 28.9922C243.217 35.9714 245.574 41.8568 250.288 46.6484C255.027 51.4141 260.808 53.7969 267.631 53.7969C274.454 53.7969 280.222 51.4141 284.936 46.6484ZM287.748 8.60156C293.269 14.2005 296.03 20.9974 296.03 28.9922C296.03 36.987 293.269 43.7839 287.748 49.3828C282.228 54.9818 275.522 57.7812 267.631 57.7812C259.793 57.7812 253.1 54.9818 247.553 49.3828C242.006 43.7839 239.233 36.987 239.233 28.9922C239.233 20.9974 242.006 14.2005 247.553 8.60156C253.1 3.0026 259.793 0.203125 267.631 0.203125C275.522 0.203125 282.228 3.0026 287.748 8.60156ZM305.633 0.984375H346.414V5.00781H328.016V57H324.031V5.00781H305.633V0.984375ZM367.228 53.0156H401.603V57H363.205V0.984375H400.822V5.00781H367.228V25.7891H394.416V29.8125H367.228V53.0156ZM460.816 0.984375V57H456.792V5.00781H429.995V17.7812C429.995 25.8802 429.631 32.6771 428.902 38.1719C428.198 43.6406 427.144 47.7552 425.737 50.5156C424.357 53.25 422.873 55.151 421.284 56.2188C419.696 57.2604 417.808 57.7812 415.62 57.7812C414.917 57.7812 414.162 57.7031 413.355 57.5469C412.573 57.3906 411.961 57.2344 411.519 57.0781L410.816 56.8438V53.0156C412.404 53.5365 413.862 53.7969 415.191 53.7969C416.727 53.7969 418.081 53.3411 419.253 52.4297C420.451 51.5182 421.597 49.8516 422.691 47.4297C423.784 45.0078 424.605 41.3099 425.152 36.3359C425.724 31.3359 426.011 25.151 426.011 17.7812V0.984375H460.816ZM504.833 57H484.833V0.984375H488.856V22.5859H504.833C510.015 22.5859 514.312 24.2396 517.723 27.5469C521.135 30.8542 522.841 34.9427 522.841 39.8125C522.841 44.6562 521.135 48.7318 517.723 52.0391C514.312 55.3464 510.015 57 504.833 57ZM488.856 53.0156H504.833C508.999 53.0156 512.372 51.7786 514.95 49.3047C517.554 46.8047 518.856 43.6406 518.856 39.8125C518.856 35.9583 517.554 32.7943 514.95 30.3203C512.372 27.8464 508.999 26.6094 504.833 26.6094H488.856V53.0156ZM0 151.991H3.60352C3.89648 151.757 4.27734 151.361 4.74609 150.805C5.24414 150.219 6.1084 148.915 7.33887 146.894C8.56934 144.843 9.65332 142.602 10.5908 140.17C11.5576 137.738 12.4365 134.428 13.2275 130.238C14.0186 126.02 14.4141 121.566 14.4141 116.879V97.9824H55.3711V151.991H63.0176V174.491H53.0859V161H9.8877V174.491H0V151.991ZM24.3018 116.879C24.3018 121.566 23.9209 125.99 23.1592 130.15C22.4268 134.281 21.5332 137.621 20.4785 140.17C19.4238 142.719 18.3691 144.945 17.3145 146.85C16.2598 148.725 15.3516 150.058 14.5898 150.849L13.4912 151.991H45.4395V106.991H24.3018V116.879ZM95.0027 112.924C90.491 117.436 88.2352 122.958 88.2352 129.491C88.2352 136.024 90.491 141.562 95.0027 146.103C99.5437 150.644 105.081 152.914 111.614 152.914C118.177 152.914 123.714 150.644 128.225 146.103C132.766 141.562 135.037 136.024 135.037 129.491C135.037 122.958 132.766 117.436 128.225 112.924C123.714 108.383 118.177 106.112 111.614 106.112C105.081 106.112 99.5437 108.383 95.0027 112.924ZM87.9275 152.475C81.5408 146.205 78.3475 138.544 78.3475 129.491C78.3475 120.438 81.5408 112.777 87.9275 106.508C94.3143 100.238 102.21 97.1035 111.614 97.1035C121.048 97.1035 128.958 100.238 135.345 106.508C141.731 112.777 144.925 120.438 144.925 129.491C144.925 138.544 141.731 146.205 135.345 152.475C128.958 158.744 121.048 161.879 111.614 161.879C102.21 161.879 94.3143 158.744 87.9275 152.475ZM199.41 128.612L223.712 97.9824H232.281V161H222.393V115.121L199.41 143.905L176.47 115.121V161H166.583V97.9824H175.108L199.41 128.612ZM267.342 151.991H283.558C286.488 151.991 288.934 151.01 290.897 149.047C292.889 147.055 293.885 144.594 293.885 141.664C293.885 138.705 292.889 136.244 290.897 134.281C288.934 132.289 286.488 131.293 283.558 131.293H267.342V151.991ZM283.558 161H257.454V97.9824H298.851V106.991H267.342V122.284H283.558C289.388 122.284 294.222 124.145 298.06 127.865C301.898 131.586 303.817 136.186 303.817 141.664C303.817 147.113 301.898 151.698 298.06 155.419C294.222 159.14 289.388 161 283.558 161ZM325.387 97.9824H350.568C356.573 97.9824 361.598 99.96 365.641 103.915C369.713 107.841 371.749 112.631 371.749 118.285C371.749 123.91 369.713 128.686 365.641 132.611C361.598 136.537 356.573 138.5 350.568 138.5H335.275V161H325.387V97.9824ZM350.568 106.991H335.275V129.491H350.568C353.673 129.491 356.324 128.422 358.522 126.283C360.719 124.115 361.818 121.449 361.818 118.285C361.818 115.092 360.719 112.411 358.522 110.243C356.324 108.075 353.673 106.991 350.568 106.991ZM406.371 112.924C401.859 117.436 399.604 122.958 399.604 129.491C399.604 136.024 401.859 141.562 406.371 146.103C410.912 150.644 416.449 152.914 422.982 152.914C429.545 152.914 435.082 150.644 439.594 146.103C444.135 141.562 446.405 136.024 446.405 129.491C446.405 122.958 444.135 117.436 439.594 112.924C435.082 108.383 429.545 106.112 422.982 106.112C416.449 106.112 410.912 108.383 406.371 112.924ZM399.296 152.475C392.909 146.205 389.716 138.544 389.716 129.491C389.716 120.438 392.909 112.777 399.296 106.508C405.683 100.238 413.578 97.1035 422.982 97.1035C432.416 97.1035 440.326 100.238 446.713 106.508C453.1 112.777 456.293 120.438 456.293 129.491C456.293 138.544 453.1 146.205 446.713 152.475C440.326 158.744 432.416 161.879 422.982 161.879C413.578 161.879 405.683 158.744 399.296 152.475ZM504.933 161H477.951V97.9824H503.571C508.669 97.9824 513.019 99.667 516.623 103.036C520.226 106.405 522.028 110.272 522.028 114.638C522.028 117.157 521.501 119.472 520.446 121.581C519.421 123.69 518.395 125.155 517.37 125.976L515.744 127.25C515.978 127.367 516.301 127.572 516.711 127.865C517.15 128.129 517.927 128.729 519.04 129.667C520.153 130.575 521.105 131.586 521.896 132.699C522.717 133.812 523.464 135.263 524.138 137.05C524.841 138.808 525.192 140.639 525.192 142.543C525.192 147.582 523.259 151.918 519.391 155.551C515.524 159.184 510.705 161 504.933 161ZM487.839 152.431H504.933C507.863 152.431 510.324 151.449 512.316 149.486C514.308 147.494 515.305 145.033 515.305 142.104C515.305 139.174 514.308 136.713 512.316 134.721C510.353 132.729 507.892 131.732 504.933 131.732H487.839V152.431ZM503.571 106.552H487.839V123.646H503.571C506.032 123.646 508.068 122.841 509.68 121.229C511.32 119.589 512.14 117.553 512.14 115.121C512.14 112.66 511.32 110.624 509.68 109.013C508.068 107.372 506.032 106.552 503.571 106.552ZM576.469 97.1035C579.663 97.1035 582.724 97.5283 585.654 98.3779C588.584 99.1982 591.001 100.209 592.905 101.41C594.839 102.611 596.523 103.798 597.959 104.97C599.394 106.142 600.449 107.152 601.123 108.002L602.089 109.232L595.805 115.561C595.63 115.326 595.366 115.004 595.014 114.594C594.692 114.154 593.93 113.378 592.729 112.265C591.528 111.151 590.239 110.199 588.862 109.408C587.485 108.588 585.683 107.841 583.457 107.167C581.259 106.464 578.93 106.112 576.469 106.112C569.936 106.112 564.399 108.383 559.858 112.924C555.317 117.436 553.047 122.958 553.047 129.491C553.047 136.024 555.302 141.562 559.814 146.103C564.355 150.644 569.907 152.914 576.469 152.914C578.93 152.914 581.274 152.577 583.501 151.903C585.756 151.2 587.617 150.365 589.082 149.398C590.576 148.432 591.88 147.479 592.993 146.542C594.135 145.575 594.985 144.755 595.542 144.081L596.245 142.982L602.573 149.311C602.339 149.662 601.972 150.131 601.474 150.717C601.005 151.273 599.936 152.27 598.266 153.705C596.626 155.141 594.868 156.415 592.993 157.528C591.147 158.642 588.715 159.652 585.698 160.561C582.71 161.439 579.633 161.879 576.469 161.879C567.036 161.879 559.126 158.744 552.739 152.475C546.352 146.205 543.159 138.544 543.159 129.491C543.159 120.438 546.352 112.777 552.739 106.508C559.126 100.238 567.036 97.1035 576.469 97.1035ZM632.229 97.9824V128.612L660.574 97.9824H673.186L648.884 124.086L674.988 161H662.815L642.117 131.293L632.229 142.104V161H622.341V97.9824H632.229ZM745.645 161H735.757V115.561L700.645 161H692.119V97.9824H702.007V143.466L737.119 97.9824H745.645V161ZM792.923 120.043L808.655 97.9824H820.345L798.768 128.129L822.146 161H810.457L792.923 136.259L775.345 161H763.655L787.034 128.129L765.457 97.9824H777.146L792.923 120.043Z" fill="url(#paint0_linear_3_16)"/>
<defs>
<linearGradient id="paint0_linear_3_16" x1="422" y1="-19" x2="422" y2="180" gradientUnits="userSpaceOnUse">
<stop stop-color="white"/>
<stop offset="1" stop-color="white" stop-opacity="0.56"/>
</linearGradient>
</defs>
</svg>
