<svg width="918" height="76" viewBox="0 0 918 76" fill="none" xmlns="http://www.w3.org/2000/svg">
<path d="M23.7031 2.20312C32.0885 2.20312 39.1198 4.98958 44.7969 10.5625C50.474 16.1354 53.3125 22.9453 53.3125 30.9922C53.3125 39.0391 50.4609 45.849 44.7578 51.4219C39.0807 56.9948 32.0625 59.7812 23.7031 59.7812C20.8646 59.7812 18.1302 59.4036 15.5 58.6484C12.8698 57.8672 10.6823 56.9297 8.9375 55.8359C7.19271 54.7422 5.65625 53.6484 4.32812 52.5547C3 51.4609 2.03646 50.5104 1.4375 49.7031L0.5 48.6094L6.08594 42.9844C6.24219 43.1927 6.47656 43.5052 6.78906 43.9219C7.1276 44.3125 7.84375 45.0156 8.9375 46.0312C10.0312 47.0469 11.2031 47.9453 12.4531 48.7266C13.7031 49.5078 15.3438 50.224 17.375 50.875C19.4062 51.5 21.5156 51.8125 23.7031 51.8125C29.1458 51.8125 33.651 50.237 37.2188 47.0859C40.7865 43.9349 43.0781 39.7682 44.0938 34.5859H16.5156V26.6172H44.0938C42.8177 21.8255 40.3828 17.8932 36.7891 14.8203C33.2214 11.7474 28.8594 10.2109 23.7031 10.2109C21.5156 10.2109 19.4323 10.5104 17.4531 11.1094C15.474 11.6823 13.8464 12.3724 12.5703 13.1797C11.2943 13.9609 10.1745 14.7682 9.21094 15.6016C8.2474 16.4349 7.55729 17.138 7.14062 17.7109L6.51562 18.6094L0.890625 12.9844C1.09896 12.724 1.39844 12.3464 1.78906 11.8516C2.20573 11.3307 3.11719 10.4583 4.52344 9.23438C5.95573 8.01042 7.47917 6.91667 9.09375 5.95312C10.7344 4.98958 12.8698 4.13021 15.5 3.375C18.1302 2.59375 20.8646 2.20312 23.7031 2.20312ZM97.2969 20.6016L82.4922 36.6172L98.4688 59H89.6797L77.2969 41.8125L71.2812 48.2188V59H63.2734V20.6016H71.2812V37.7891L87.6875 20.6016H97.2969ZM129.25 48.8828C131.62 46.4089 132.805 43.388 132.805 39.8203C132.805 36.2266 131.62 33.1927 129.25 30.7188C126.88 28.2448 124.068 27.0078 120.812 27.0078C117.557 27.0078 114.732 28.2448 112.336 30.7188C109.966 33.1927 108.781 36.2266 108.781 39.8203C108.781 43.388 109.966 46.4089 112.336 48.8828C114.732 51.3568 117.557 52.5938 120.812 52.5938C124.068 52.5938 126.88 51.3568 129.25 48.8828ZM106.75 53.8438C102.792 49.8594 100.812 45.1849 100.812 39.8203C100.812 34.4297 102.792 29.7422 106.75 25.7578C110.734 21.7734 115.422 19.7812 120.812 19.7812C126.203 19.7812 130.878 21.7734 134.836 25.7578C138.82 29.7422 140.812 34.4297 140.812 39.8203C140.812 45.1849 138.82 49.8594 134.836 53.8438C130.878 57.8021 126.203 59.7812 120.812 59.7812C115.422 59.7812 110.734 57.8021 106.75 53.8438ZM175.617 31.8125V39H147.609V31.8125H175.617ZM210.031 48.8828C212.401 46.4089 213.586 43.388 213.586 39.8203C213.586 36.2266 212.401 33.1927 210.031 30.7188C207.661 28.2448 204.849 27.0078 201.594 27.0078C198.339 27.0078 195.513 28.2448 193.117 30.7188C190.747 33.1927 189.562 36.2266 189.562 39.8203C189.562 43.388 190.747 46.4089 193.117 48.8828C195.513 51.3568 198.339 52.5938 201.594 52.5938C204.849 52.5938 207.661 51.3568 210.031 48.8828ZM187.531 53.8438C183.573 49.8594 181.594 45.1849 181.594 39.8203C181.594 34.4297 183.573 29.7422 187.531 25.7578C191.516 21.7734 196.203 19.7812 201.594 19.7812C206.984 19.7812 211.659 21.7734 215.617 25.7578C219.602 29.7422 221.594 34.4297 221.594 39.8203C221.594 45.1849 219.602 49.8594 215.617 53.8438C211.659 57.8021 206.984 59.7812 201.594 59.7812C196.203 59.7812 191.516 57.8021 187.531 53.8438ZM226.398 27.7891V20.6016H260.773V27.7891H247.57V59H239.602V27.7891H226.398ZM303.547 42.5938H273.547C273.964 45.3021 275.292 47.6458 277.531 49.625C279.797 51.6042 282.479 52.5938 285.578 52.5938C287.818 52.5938 289.901 52.0859 291.828 51.0703C293.781 50.0547 295.161 49.0651 295.969 48.1016L297.18 46.6172L302.375 51.8125C302.219 52.0208 301.971 52.3203 301.633 52.7109C301.32 53.0755 300.63 53.7135 299.562 54.625C298.495 55.5104 297.362 56.3047 296.164 57.0078C294.966 57.6849 293.404 58.3229 291.477 58.9219C289.576 59.4948 287.609 59.7812 285.578 59.7812C280.135 59.7812 275.435 57.7891 271.477 53.8047C267.544 49.7943 265.578 44.9896 265.578 39.3906C265.578 34 267.492 29.3906 271.32 25.5625C275.174 21.7083 279.784 19.7812 285.148 19.7812C290.539 19.7812 295.018 21.5781 298.586 25.1719C302.18 28.7396 303.977 33.2188 303.977 38.6094L303.547 42.5938ZM285.148 26.6172C282.258 26.6172 279.823 27.4766 277.844 29.1953C275.891 30.888 274.576 33.0885 273.898 35.7969H296.125C295.656 33.0885 294.445 30.888 292.492 29.1953C290.539 27.4766 288.091 26.6172 285.148 26.6172ZM317.141 20.6016H346.75V59H338.742V27.7891H325.148V31.8125C325.148 39.1302 324.562 44.9115 323.391 49.1562C322.245 53.375 320.76 56.2005 318.938 57.6328C317.141 59.0651 314.81 59.7812 311.945 59.7812C311.242 59.7812 310.487 59.7161 309.68 59.5859C308.898 59.4557 308.286 59.3125 307.844 59.1562L307.141 59V51.3828C308.208 51.6432 309.133 51.7865 309.914 51.8125C311.555 51.8125 312.844 51.3698 313.781 50.4844C314.745 49.599 315.539 47.6458 316.164 44.625C316.815 41.5781 317.141 37.3073 317.141 31.8125V20.6016ZM365.969 52.2031H374.758C376.581 52.2031 378.104 51.5911 379.328 50.3672C380.552 49.1432 381.164 47.6198 381.164 45.7969C381.164 43.974 380.552 42.4505 379.328 41.2266C378.104 40.0026 376.581 39.3906 374.758 39.3906H365.969V52.2031ZM385.188 36.3438C387.844 38.8177 389.172 41.9818 389.172 45.8359C389.172 49.6641 387.844 52.8151 385.188 55.2891C382.557 57.763 379.081 59 374.758 59H357.961V20.6016H365.969V32.5938H374.758C379.081 32.5938 382.557 33.8438 385.188 36.3438ZM408.781 50.9922H411.984C412.245 50.7839 412.583 50.4323 413 49.9375C413.443 49.4167 414.211 48.2578 415.305 46.4609C416.398 44.638 417.362 42.6458 418.195 40.4844C419.055 38.3229 419.836 35.3802 420.539 31.6562C421.242 27.9062 421.594 23.9479 421.594 19.7812V2.98438H458V50.9922H464.797V70.9922H455.969V59H417.57V70.9922H408.781V50.9922ZM430.383 19.7812C430.383 23.9479 430.044 27.8802 429.367 31.5781C428.716 35.25 427.922 38.2188 426.984 40.4844C426.047 42.75 425.109 44.7292 424.172 46.4219C423.234 48.0885 422.427 49.2734 421.75 49.9766L420.773 50.9922H449.172V10.9922H430.383V19.7812ZM498.469 48.8828C500.839 46.4089 502.023 43.388 502.023 39.8203C502.023 36.2266 500.839 33.1927 498.469 30.7188C496.099 28.2448 493.286 27.0078 490.031 27.0078C486.776 27.0078 483.951 28.2448 481.555 30.7188C479.185 33.1927 478 36.2266 478 39.8203C478 43.388 479.185 46.4089 481.555 48.8828C483.951 51.3568 486.776 52.5938 490.031 52.5938C493.286 52.5938 496.099 51.3568 498.469 48.8828ZM475.969 53.8438C472.01 49.8594 470.031 45.1849 470.031 39.8203C470.031 34.4297 472.01 29.7422 475.969 25.7578C479.953 21.7734 484.641 19.7812 490.031 19.7812C495.422 19.7812 500.096 21.7734 504.055 25.7578C508.039 29.7422 510.031 34.4297 510.031 39.8203C510.031 45.1849 508.039 49.8594 504.055 53.8438C500.096 57.8021 495.422 59.7812 490.031 59.7812C484.641 59.7812 479.953 57.8021 475.969 53.8438ZM539.211 37.3984L553.234 20.6016H559.641V59H551.633V33.8047L539.211 48.6094L526.828 33.8047V59H518.82V20.6016H525.227L539.211 37.3984ZM609.25 40.2109C609.25 45.6016 607.349 50.2109 603.547 54.0391C599.771 57.8672 595.279 59.7812 590.07 59.7812C584.055 59.7812 579.211 57.6328 575.539 53.3359C571.893 49.013 570.07 42.763 570.07 34.5859C570.07 25.263 571.802 18.2708 575.266 13.6094C578.729 8.94792 583.664 6.08333 590.07 5.01562C592.909 4.54688 595.448 3.94792 597.688 3.21875C599.953 2.48958 601.516 1.8776 602.375 1.38281L603.664 0.601562L607.258 6.61719C607.102 6.82552 606.776 7.125 606.281 7.51562C605.812 7.90625 604.185 8.60938 601.398 9.625C598.638 10.6406 595.122 11.5 590.852 12.2031C587.18 12.8021 584.224 14.3255 581.984 16.7734C579.745 19.2214 578.43 22.5026 578.039 26.6172C578.143 26.4609 578.326 26.2526 578.586 25.9922C578.872 25.7057 579.432 25.224 580.266 24.5469C581.099 23.8438 581.971 23.2318 582.883 22.7109C583.82 22.1641 585.005 21.6823 586.438 21.2656C587.896 20.8229 589.367 20.6016 590.852 20.6016C595.695 20.6016 599.966 22.5417 603.664 26.4219C607.388 30.276 609.25 34.8724 609.25 40.2109ZM582.18 31.3828C579.966 33.7526 578.859 36.6953 578.859 40.2109C578.859 43.7266 579.966 46.6693 582.18 49.0391C584.393 51.4089 587.01 52.5938 590.031 52.5938C593.078 52.5938 595.708 51.4089 597.922 49.0391C600.135 46.6693 601.242 43.7266 601.242 40.2109C601.242 36.6953 600.135 33.7526 597.922 31.3828C595.708 28.987 593.078 27.7891 590.031 27.7891C587.01 27.7891 584.393 28.987 582.18 31.3828ZM639.211 59.7812C637.779 59.7812 636.385 59.612 635.031 59.2734C633.677 58.9349 632.518 58.5182 631.555 58.0234C630.591 57.5026 629.732 56.9818 628.977 56.4609C628.247 55.9141 627.714 55.4844 627.375 55.1719L626.828 54.5859V75.7969H618.82V20.6016H626.828V25.0156C627.193 24.651 627.701 24.1693 628.352 23.5703C629.029 22.9714 630.448 22.1901 632.609 21.2266C634.771 20.263 636.971 19.7812 639.211 19.7812C644.289 19.7812 648.69 21.7344 652.414 25.6406C656.164 29.5208 658.039 34.2344 658.039 39.7812C658.039 45.3281 656.164 50.0547 652.414 53.9609C648.69 57.8411 644.289 59.7812 639.211 59.7812ZM646.516 30.7578C644.172 28.2578 641.477 27.0078 638.43 27.0078C635.383 27.0078 632.688 28.2578 630.344 30.7578C628 33.2578 626.828 36.2786 626.828 39.8203C626.828 43.3359 628 46.3438 630.344 48.8438C632.688 51.3438 635.383 52.5938 638.43 52.5938C641.477 52.5938 644.172 51.3438 646.516 48.8438C648.859 46.3438 650.031 43.3359 650.031 39.8203C650.031 36.2786 648.859 33.2578 646.516 30.7578ZM692.844 48.8828C695.214 46.4089 696.398 43.388 696.398 39.8203C696.398 36.2266 695.214 33.1927 692.844 30.7188C690.474 28.2448 687.661 27.0078 684.406 27.0078C681.151 27.0078 678.326 28.2448 675.93 30.7188C673.56 33.1927 672.375 36.2266 672.375 39.8203C672.375 43.388 673.56 46.4089 675.93 48.8828C678.326 51.3568 681.151 52.5938 684.406 52.5938C687.661 52.5938 690.474 51.3568 692.844 48.8828ZM670.344 53.8438C666.385 49.8594 664.406 45.1849 664.406 39.8203C664.406 34.4297 666.385 29.7422 670.344 25.7578C674.328 21.7734 679.016 19.7812 684.406 19.7812C689.797 19.7812 694.471 21.7734 698.43 25.7578C702.414 29.7422 704.406 34.4297 704.406 39.8203C704.406 45.1849 702.414 49.8594 698.43 53.8438C694.471 57.8021 689.797 59.7812 684.406 59.7812C679.016 59.7812 674.328 57.8021 670.344 53.8438ZM713.195 20.6016H731.594C735.266 20.6016 738.182 21.5521 740.344 23.4531C742.505 25.3281 743.586 27.7109 743.586 30.6016C743.586 32.2422 743.221 33.7396 742.492 35.0938C741.789 36.4219 741.06 37.3464 740.305 37.8672L739.211 38.6094C739.367 38.6615 739.589 38.7526 739.875 38.8828C740.161 39.013 740.682 39.3516 741.438 39.8984C742.193 40.4193 742.844 41.0052 743.391 41.6562C743.964 42.2812 744.471 43.1406 744.914 44.2344C745.383 45.3281 745.617 46.513 745.617 47.7891C745.617 51.0964 744.432 53.7917 742.062 55.875C739.719 57.9583 736.503 59 732.414 59H713.195V20.6016ZM732.414 41.8125H721.203V52.2031H732.414C734.003 52.2031 735.266 51.7344 736.203 50.7969C737.141 49.8594 737.609 48.5964 737.609 47.0078C737.609 45.5755 737.128 44.3516 736.164 43.3359C735.201 42.3203 733.951 41.8125 732.414 41.8125ZM734.523 34.3516C735.253 33.6224 735.617 32.6458 735.617 31.4219C735.617 30.1719 735.253 29.1953 734.523 28.4922C733.794 27.763 732.818 27.3984 731.594 27.3984H721.203V35.4062H731.594C732.818 35.4062 733.794 35.0547 734.523 34.3516ZM757.922 53.8438C753.964 49.8594 751.984 45.1849 751.984 39.8203C751.984 34.4297 753.964 29.7422 757.922 25.7578C761.906 21.7734 766.594 19.7812 771.984 19.7812C774.979 19.7812 777.766 20.4323 780.344 21.7344C782.922 23.0104 784.771 24.2865 785.891 25.5625L787.57 27.3984L782.375 32.5938C782.115 32.1771 781.711 31.6693 781.164 31.0703C780.643 30.4453 779.484 29.612 777.688 28.5703C775.917 27.5286 774.016 27.0078 771.984 27.0078C768.729 27.0078 765.904 28.2448 763.508 30.7188C761.138 33.1927 759.953 36.2266 759.953 39.8203C759.953 43.388 761.138 46.4089 763.508 48.8828C765.904 51.3568 768.729 52.5938 771.984 52.5938C774.016 52.5938 775.917 52.0859 777.688 51.0703C779.484 50.0547 780.773 49.0651 781.555 48.1016L782.766 46.6172L787.961 51.8125C787.805 52.0208 787.57 52.3203 787.258 52.7109C786.945 53.0755 786.268 53.7135 785.227 54.625C784.185 55.5104 783.091 56.3047 781.945 57.0078C780.799 57.6849 779.315 58.3229 777.492 58.9219C775.669 59.4948 773.833 59.7812 771.984 59.7812C766.594 59.7812 761.906 57.8021 757.922 53.8438ZM829.953 20.6016L815.148 36.6172L831.125 59H822.336L809.953 41.8125L803.938 48.2188V59H795.93V20.6016H803.938V37.7891L820.344 20.6016H829.953ZM865.5 20.6016H872.688V59H864.68V33.8047L844.68 59H837.492V20.6016H845.5V45.7969L865.5 20.6016ZM903.117 39L917.492 59H908.312L898.312 45.0156L888.312 59H879.094L893.508 39L880.305 20.6016H889.484L898.312 32.9844L907.102 20.6016H916.32L903.117 39Z" fill="url(#paint0_linear_81_191)"/>
<defs>
<linearGradient id="paint0_linear_81_191" x1="458" y1="-18" x2="458" y2="76" gradientUnits="userSpaceOnUse">
<stop stop-color="white"/>
<stop offset="1" stop-color="white" stop-opacity="0.3"/>
</linearGradient>
</defs>
</svg>
