<svg width="351" height="92" viewBox="0 0 351 92" fill="none" xmlns="http://www.w3.org/2000/svg">
<path d="M56.5039 0.980469V71H45.5176V40.4824H10.9961V71H0.00976562V0.980469H10.9961V30.5215H45.5176V0.980469H56.5039ZM105.527 58.3535C108.49 55.2611 109.971 51.485 109.971 47.0254C109.971 42.5332 108.49 38.7409 105.527 35.6484C102.565 32.556 99.0495 31.0098 94.9805 31.0098C90.9115 31.0098 87.3796 32.556 84.3848 35.6484C81.4225 38.7409 79.9414 42.5332 79.9414 47.0254C79.9414 51.485 81.4225 55.2611 84.3848 58.3535C87.3796 61.446 90.9115 62.9922 94.9805 62.9922C99.0495 62.9922 102.565 61.446 105.527 58.3535ZM77.4023 64.5547C72.4544 59.5742 69.9805 53.7311 69.9805 47.0254C69.9805 40.2871 72.4544 34.4277 77.4023 29.4473C82.3828 24.4668 88.2422 21.9766 94.9805 21.9766C101.719 21.9766 107.562 24.4668 112.51 29.4473C117.49 34.4277 119.98 40.2871 119.98 47.0254C119.98 53.7311 117.49 59.5742 112.51 64.5547C107.562 69.5026 101.719 71.9766 94.9805 71.9766C88.2422 71.9766 82.3828 69.5026 77.4023 64.5547ZM156.455 43.998L173.984 23.002H181.992V71H171.982V39.5059L156.455 58.0117L140.977 39.5059V71H130.967V23.002H138.975L156.455 43.998ZM240.488 50.4922H202.988C203.509 53.8776 205.169 56.8073 207.969 59.2812C210.801 61.7552 214.154 62.9922 218.027 62.9922C220.827 62.9922 223.431 62.3574 225.84 61.0879C228.281 59.8184 230.007 58.5814 231.016 57.377L232.529 55.5215L239.023 62.0156C238.828 62.276 238.519 62.6504 238.096 63.1387C237.705 63.5944 236.842 64.3919 235.508 65.5312C234.173 66.638 232.757 67.6309 231.26 68.5098C229.762 69.3561 227.809 70.1536 225.4 70.9023C223.024 71.6185 220.566 71.9766 218.027 71.9766C211.224 71.9766 205.348 69.4863 200.4 64.5059C195.485 59.4928 193.027 53.487 193.027 46.4883C193.027 39.75 195.42 33.9883 200.205 29.2031C205.023 24.3854 210.785 21.9766 217.49 21.9766C224.229 21.9766 229.827 24.2227 234.287 28.7148C238.779 33.1745 241.025 38.7734 241.025 45.5117L240.488 50.4922ZM217.49 30.5215C213.877 30.5215 210.833 31.5957 208.359 33.7441C205.918 35.86 204.274 38.6107 203.428 41.9961H231.211C230.625 38.6107 229.111 35.86 226.67 33.7441C224.229 31.5957 221.169 30.5215 217.49 30.5215ZM277.451 71.9766C275.661 71.9766 273.919 71.765 272.227 71.3418C270.534 70.9186 269.085 70.3978 267.881 69.7793C266.676 69.1283 265.602 68.4772 264.658 67.8262C263.747 67.1426 263.079 66.6055 262.656 66.2148L261.973 65.4824V91.9961H251.963V23.002H261.973V28.5195C262.428 28.0638 263.063 27.4616 263.877 26.7129C264.723 25.9642 266.497 24.9876 269.199 23.7832C271.901 22.5788 274.652 21.9766 277.451 21.9766C283.799 21.9766 289.3 24.418 293.955 29.3008C298.643 34.151 300.986 40.043 300.986 46.9766C300.986 53.9102 298.643 59.8184 293.955 64.7012C289.3 69.5514 283.799 71.9766 277.451 71.9766ZM286.582 35.6973C283.652 32.5723 280.283 31.0098 276.475 31.0098C272.666 31.0098 269.297 32.5723 266.367 35.6973C263.438 38.8223 261.973 42.5983 261.973 47.0254C261.973 51.4199 263.438 55.1797 266.367 58.3047C269.297 61.4297 272.666 62.9922 276.475 62.9922C280.283 62.9922 283.652 61.4297 286.582 58.3047C289.512 55.1797 290.977 51.4199 290.977 47.0254C290.977 42.5983 289.512 38.8223 286.582 35.6973ZM350.449 71H340.439V66.0195C340.309 66.1497 340.081 66.3613 339.756 66.6543C339.463 66.9473 338.844 67.4355 337.9 68.1191C336.989 68.7702 335.996 69.3724 334.922 69.9258C333.848 70.4466 332.497 70.9186 330.869 71.3418C329.242 71.765 327.598 71.9766 325.938 71.9766C321.055 71.9766 317.002 70.5605 313.779 67.7285C310.557 64.8965 308.945 61.6576 308.945 58.0117C308.945 54.0729 310.182 50.7689 312.656 48.0996C315.163 45.4303 318.581 43.7376 322.91 43.0215L340.439 39.9941C340.439 37.4551 339.495 35.3229 337.607 33.5977C335.752 31.8724 333.359 31.0098 330.43 31.0098C327.891 31.0098 325.579 31.5469 323.496 32.6211C321.445 33.6628 320.029 34.7207 319.248 35.7949L317.93 37.5039L311.436 31.0098C311.631 30.7493 311.891 30.4238 312.217 30.0332C312.575 29.61 313.34 28.8939 314.512 27.8848C315.716 26.8431 316.986 25.9154 318.32 25.1016C319.655 24.2878 321.413 23.5716 323.594 22.9531C325.807 22.3021 328.086 21.9766 330.43 21.9766C336.289 21.9766 341.09 23.7181 344.834 27.2012C348.577 30.6517 350.449 34.916 350.449 39.9941V71ZM327.451 62.9922C331.52 62.9922 334.694 61.7878 336.973 59.3789C339.284 56.9375 340.439 53.4707 340.439 48.9785V48.002L324.912 50.4922C323.122 50.8177 321.673 51.5501 320.566 52.6895C319.46 53.8288 318.906 55.2611 318.906 56.9863C318.906 58.5814 319.671 59.9811 321.201 61.1855C322.764 62.39 324.847 62.9922 327.451 62.9922Z" fill="url(#paint0_linear_86_340)"/>
<defs>
<linearGradient id="paint0_linear_86_340" x1="178" y1="-25" x2="178" y2="93" gradientUnits="userSpaceOnUse">
<stop stop-color="white"/>
<stop offset="1" stop-color="white" stop-opacity="0.6"/>
</linearGradient>
</defs>
</svg>
